<?xml version="1.0" encoding="UTF-8" standalone="no"?>
<!DOCTYPE svg PUBLIC "-//W3C//DTD SVG 1.1//EN" "http://www.w3.org/Graphics/SVG/1.1/DTD/svg11.dtd">
<svg xmlns="http://www.w3.org/2000/svg" xmlns:xl="http://www.w3.org/1999/xlink" version="1.1" xmlns:dc="http://purl.org/dc/elements/1.1/" viewBox="0 0 1056 678.3" width="1056" height="678.3">
  <defs>
    <font-face font-family="Roboto" font-size="10" panose-1="2 0 0 0 0 0 0 0 0 0" units-per-em="1000" underline-position="-73.24219" underline-thickness="48.828125" slope="0" x-height="528.3203" cap-height="710.9375" ascent="927.7344" descent="-244.14062" font-weight="400">
      <font-face-src>
        <font-face-name name="Roboto-Regular"/>
      </font-face-src>
    </font-face>
    <clipPath id="inner_stroke_clip_path">
      <path d="M 158.39933 161.1327 L 278.19933 161.1327 L 278.19933 200.75002 L 158.39933 200.75002 Z"/>
    </clipPath>
    <font-face font-family="Roboto" font-size="12" panose-1="2 0 0 0 0 0 0 0 0 0" units-per-em="1000" underline-position="-73.24219" underline-thickness="48.828125" slope="0" x-height="528.3203" cap-height="710.9375" ascent="927.7344" descent="-244.14062" font-weight="400">
      <font-face-src>
        <font-face-name name="Roboto-Regular"/>
      </font-face-src>
    </font-face>
    <clipPath id="inner_stroke_clip_path_2">
      <path d="M 467.398 161.1327 L 587.198 161.1327 L 587.198 200.75002 L 467.398 200.75002 Z"/>
    </clipPath>
    <clipPath id="inner_stroke_clip_path_3">
      <path d="M 777.9967 161.1327 L 897.7967 161.1327 L 897.7967 200.75002 L 777.9967 200.75002 Z"/>
    </clipPath>
    <clipPath id="inner_stroke_clip_path_4">
      <path d="M 97.9 414.95 L 157.6 414.95 L 157.6 454.0173 L 97.9 454.0173 Z"/>
    </clipPath>
    <clipPath id="inner_stroke_clip_path_5">
      <path d="M 189.175 414.95 L 248.875 414.95 L 248.875 454.0173 L 189.175 454.0173 Z"/>
    </clipPath>
    <clipPath id="inner_stroke_clip_path_6">
      <path d="M 277.99866 414.95 L 337.69867 414.95 L 337.69867 454.0173 L 277.99866 454.0173 Z"/>
    </clipPath>
    <clipPath id="inner_stroke_clip_path_7">
      <path d="M 97.9 538.95 L 157.6 538.95 L 157.6 578.0173 L 97.9 578.0173 Z"/>
    </clipPath>
    <clipPath id="inner_stroke_clip_path_8">
      <path d="M 189.175 538.95 L 248.875 538.95 L 248.875 578.0173 L 189.175 578.0173 Z"/>
    </clipPath>
    <clipPath id="inner_stroke_clip_path_9">
      <path d="M 277.99866 538.95 L 337.69867 538.95 L 337.69867 578.0173 L 277.99866 578.0173 Z"/>
    </clipPath>
    <clipPath id="inner_stroke_clip_path_10">
      <path d="M 408.19867 414.95 L 467.8987 414.95 L 467.8987 454.0173 L 408.19867 454.0173 Z"/>
    </clipPath>
    <clipPath id="inner_stroke_clip_path_11">
      <path d="M 499.4737 414.95 L 559.1737 414.95 L 559.1737 454.0173 L 499.4737 454.0173 Z"/>
    </clipPath>
    <clipPath id="inner_stroke_clip_path_12">
      <path d="M 588.2973 414.95 L 647.9973 414.95 L 647.9973 454.0173 L 588.2973 454.0173 Z"/>
    </clipPath>
    <clipPath id="inner_stroke_clip_path_13">
      <path d="M 408.19867 538.95 L 467.8987 538.95 L 467.8987 578.0173 L 408.19867 578.0173 Z"/>
    </clipPath>
    <clipPath id="inner_stroke_clip_path_14">
      <path d="M 499.4737 538.95 L 559.1737 538.95 L 559.1737 578.0173 L 499.4737 578.0173 Z"/>
    </clipPath>
    <clipPath id="inner_stroke_clip_path_15">
      <path d="M 588.2973 538.95 L 647.9973 538.95 L 647.9973 578.0173 L 588.2973 578.0173 Z"/>
    </clipPath>
    <clipPath id="inner_stroke_clip_path_16">
      <path d="M 717.4973 414.95 L 777.1973 414.95 L 777.1973 454.0173 L 717.4973 454.0173 Z"/>
    </clipPath>
    <clipPath id="inner_stroke_clip_path_17">
      <path d="M 808.7723 414.95 L 868.4723 414.95 L 868.4723 454.0173 L 808.7723 454.0173 Z"/>
    </clipPath>
    <clipPath id="inner_stroke_clip_path_18">
      <path d="M 897.596 414.95 L 957.296 414.95 L 957.296 454.0173 L 897.596 454.0173 Z"/>
    </clipPath>
    <clipPath id="inner_stroke_clip_path_19">
      <path d="M 717.4973 538.95 L 777.1973 538.95 L 777.1973 578.0173 L 717.4973 578.0173 Z"/>
    </clipPath>
    <clipPath id="inner_stroke_clip_path_20">
      <path d="M 808.7723 538.95 L 868.4723 538.95 L 868.4723 578.0173 L 808.7723 578.0173 Z"/>
    </clipPath>
    <clipPath id="inner_stroke_clip_path_21">
      <path d="M 897.596 538.95 L 957.296 538.95 L 957.296 578.0173 L 897.596 578.0173 Z"/>
    </clipPath>
  </defs>
  <metadata> Produced by OmniGraffle 7.10.1
    <dc:date>2020-01-08 12:41:47 +0000</dc:date>
  </metadata>
  <g id="Canvas_4" stroke-opacity="1" stroke-dasharray="none" fill="none" stroke="none" fill-opacity="1">
    <title>4_regional_cluster_and_planes</title>
    <rect fill="white" x="0" y="0" width="1056" height="678.3"/>
    <g id="Canvas_4: Layer 1">
      <title>Layer 1</title>
      <g id="Group_420">
        <g id="Group_226">
          <g id="Graphic_244">
            <rect x="48.1" y="20" width="959.8" height="638.2543" fill="#eaedef"/>
          </g>
          <g id="Group_232">
            <title>GCP logo</title>
            <g id="Graphic_243">
              <title>Fill-3</title>
              <path d="M 142.74936 45.498514 C 142.74936 42.268576 145.19045 39.826864 148.3902 39.826864 C 150.02827 39.826864 151.40813 40.47889 152.37877 41.60114 L 151.40813 42.54159 C 150.6501 41.60114 149.63385 41.16173 148.3902 41.16173 C 146.1007 41.16173 144.17482 42.829393 144.17482 45.498514 C 144.17482 48.167635 146.1007 49.835296 148.3902 49.835296 C 149.75526 49.835296 150.9077 49.198676 151.72675 48.25823 L 152.69678 49.228874 C 151.74154 50.365915 150.21008 51.170164 148.3902 51.170164 C 145.19045 51.170164 142.74936 48.72845 142.74936 45.498514" fill="#757575"/>
            </g>
            <g id="Graphic_242">
              <title>Fill-5</title>
              <rect x="153.78803" y="40.069802" width="1.3952644" height="10.85767" fill="#757575"/>
            </g>
            <g id="Graphic_241">
              <title>Fill-7</title>
              <path d="M 162.47706 47.21209 C 162.47706 45.513613 161.29442 44.528177 160.05076 44.528177 C 158.8071 44.528177 157.62445 45.513613 157.62445 47.21209 C 157.62445 48.910564 158.8071 49.896 160.05076 49.896 C 161.29442 49.896 162.47706 48.910564 162.47706 47.21209 M 163.87233 47.21209 C 163.87233 49.47138 162.27985 51.169856 160.05076 51.169856 C 157.82166 51.169856 156.22919 49.47138 156.22919 47.21209 C 156.22919 44.952796 157.82166 43.25432 160.05076 43.25432 C 162.27985 43.25432 163.87233 44.952796 163.87233 47.21209" fill="#757575"/>
            </g>
            <g id="Graphic_240">
              <title>Fill-8</title>
              <path d="M 170.18004 50.92729 L 170.18004 49.896246 L 170.11965 49.896246 C 169.70982 50.57847 168.78478 51.1701 167.76914 51.1701 C 165.85805 51.1701 164.93301 49.88084 164.93301 48.046165 L 164.93301 43.496766 L 166.32828 43.496766 L 166.32828 47.818757 C 166.32828 49.365627 167.10171 49.896246 168.16295 49.896246 C 169.37641 49.896246 170.11965 48.72839 170.11965 47.59135 L 170.11965 43.496766 L 171.5143 43.496766 L 171.5143 50.92729 Z" fill="#757575"/>
            </g>
            <g id="Graphic_239">
              <title>Fill-9</title>
              <path d="M 178.76246 47.21209 C 178.76246 45.513613 177.6402 44.528177 176.39655 44.528177 C 175.1535 44.528177 174.03126 45.54381 174.03126 47.21209 C 174.03126 48.880366 175.1535 49.896 176.39655 49.896 C 177.6402 49.896 178.76246 48.910564 178.76246 47.21209 M 172.636 47.21209 C 172.636 44.93739 174.28886 43.25432 176.16914 43.25432 C 177.3524 43.25432 178.27744 43.845336 178.70145 44.528177 L 178.76246 44.528177 L 178.70145 43.497136 L 178.70145 40.069987 L 180.09671 40.069987 L 180.09671 50.92704 L 178.76246 50.92704 L 178.76246 49.896 L 178.70145 49.896 C 178.27744 50.578225 177.3524 51.169856 176.16914 51.169856 C 174.28886 51.169856 172.636 49.48679 172.636 47.21209" fill="#757575"/>
            </g>
            <g id="Graphic_238">
              <title>Fill-18</title>
              <path d="M 90.16176 44.95255 C 90.16176 41.5254 93.04288 38.73549 96.47003 38.73549 C 98.36571 38.73549 99.71537 39.47811 100.73101 40.448755 L 99.53357 41.64681 C 98.80512 40.964583 97.81969 40.433964 96.47003 40.433964 C 93.96792 40.433964 92.01184 42.45044 92.01184 44.95255 C 92.01184 47.45466 93.96792 49.47175 96.47003 49.47175 C 98.0927 49.47175 99.01774 48.819724 99.60876 48.22809 C 100.09439 47.74308 100.413 47.045445 100.53441 46.08959 L 96.47003 46.08959 L 96.47003 44.39173 L 102.18667 44.39173 C 102.24768 44.694943 102.27788 45.05855 102.27788 45.45297 C 102.27788 46.72683 101.92906 48.303895 100.80681 49.426146 C 99.71537 50.56319 98.32011 51.16961 96.47003 51.16961 C 93.04288 51.16961 90.16176 48.3797 90.16176 44.95255" fill="#757575"/>
            </g>
            <g id="Graphic_237">
              <title>Fill-19</title>
              <path d="M 106.89815 49.59279 C 105.68469 49.59279 104.63886 48.591945 104.63886 47.166483 C 104.63886 45.725614 105.68469 44.74018 106.89815 44.74018 C 108.11099 44.74018 109.15744 45.725614 109.15744 47.166483 C 109.15744 48.591945 108.11099 49.59279 106.89815 49.59279 M 106.89815 43.16311 C 104.68384 43.16311 102.87937 44.84618 102.87937 47.166483 C 102.87937 49.47138 104.68384 51.169856 106.89815 51.169856 C 109.11184 51.169856 110.91631 49.47138 110.91631 47.166483 C 110.91631 44.84618 109.11184 43.16311 106.89815 43.16311" fill="#757575"/>
            </g>
            <g id="Graphic_236">
              <title>Fill-20</title>
              <path d="M 115.66446 49.59279 C 114.45162 49.59279 113.40517 48.591945 113.40517 47.166483 C 113.40517 45.725614 114.45162 44.74018 115.66446 44.74018 C 116.87731 44.74018 117.92376 45.725614 117.92376 47.166483 C 117.92376 48.591945 116.87731 49.59279 115.66446 49.59279 M 115.66446 43.16311 C 113.45016 43.16311 111.64568 44.84618 111.64568 47.166483 C 111.64568 49.47138 113.45016 51.169856 115.66446 51.169856 C 117.87815 51.169856 119.68324 49.47138 119.68324 47.166483 C 119.68324 44.84618 117.87815 43.16311 115.66446 43.16311" fill="#757575"/>
            </g>
            <g id="Graphic_235">
              <title>Fill-21</title>
              <path d="M 124.40785 49.59279 C 123.19501 49.59279 122.17876 48.57654 122.17876 47.18189 C 122.17876 45.77122 123.19501 44.74018 124.40785 44.74018 C 125.6059 44.74018 126.54574 45.77122 126.54574 47.18189 C 126.54574 48.57654 125.6059 49.59279 124.40785 49.59279 Z M 126.42495 43.405926 L 126.42495 44.057953 L 126.36394 44.057953 C 125.96951 43.58773 125.21149 43.16311 124.25625 43.16311 C 122.25456 43.16311 120.41989 44.92198 120.41989 47.18189 C 120.41989 49.425776 122.25456 51.169856 124.25625 51.169856 C 125.21149 51.169856 125.96951 50.74524 126.36394 50.26022 L 126.42495 50.26022 L 126.42495 50.83645 C 126.42495 52.36791 125.6059 53.18695 124.28645 53.18695 C 123.2098 53.18695 122.54237 52.413515 122.26997 51.76149 L 120.73789 52.39811 C 121.17792 53.45996 122.34577 54.76402 124.28645 54.76402 C 126.34914 54.76402 128.09261 53.550557 128.09261 50.59363 L 128.09261 43.405926 Z" fill="#757575"/>
            </g>
            <g id="Graphic_234">
              <title>Fill-22</title>
              <rect x="129.3062" y="39.16017" width="1.7588712" height="11.767303" fill="#757575"/>
            </g>
            <g id="Graphic_233">
              <title>Fill-23</title>
              <path d="M 135.7506 44.70998 C 136.44823 44.70998 137.03986 45.058796 137.23646 45.55922 L 133.65832 47.045076 C 133.61272 45.498206 134.85576 44.70998 135.7506 44.70998 M 135.88742 49.59279 C 134.99257 49.59279 134.35534 49.183577 133.94612 48.379944 L 139.29916 46.16564 L 139.11735 45.710824 C 138.78333 44.81598 137.7677 43.16311 135.6902 43.16311 C 133.6275 43.16311 131.91424 44.785783 131.91424 47.166483 C 131.91424 49.410985 133.61272 51.169856 135.88742 51.169856 C 137.72209 51.169856 138.78333 50.047605 139.22335 49.39558 L 137.85829 48.485945 C 137.40347 49.15338 136.78164 49.59279 135.88742 49.59279" fill="#757575"/>
            </g>
          </g>
          <g id="Group_227">
            <g id="Graphic_231">
              <path d="M 76.55087 41.65107 L 77.2231 41.663625 L 79.05032 39.8364 L 79.13934 39.0626 C 77.68761 37.770646 75.77707 36.98429 73.68506 36.98429 C 69.897085 36.98429 66.70258 39.560206 65.7553 43.05259 C 65.95503 42.91449 66.380735 43.01721 66.380735 43.01721 L 70.0329 42.416883 C 70.0329 42.416883 70.222356 42.10645 70.3148 42.12585 C 71.15023 41.21167 72.35202 40.636454 73.68506 40.636454 C 74.7693 40.636454 75.7668 41.01765 76.55087 41.65107 Z" fill="#ea4335"/>
            </g>
            <g id="Graphic_230">
              <path d="M 81.61711 43.057153 C 81.19369 41.49129 80.31717 40.110314 79.1382 39.06146 L 76.54973 41.64993 C 77.58603 42.487644 78.25027 43.768184 78.25027 45.20166 L 78.25027 45.65818 C 79.509125 45.65818 80.53287 46.681926 80.53287 47.94078 C 80.53287 49.199637 79.509125 50.223384 78.25027 50.223384 L 73.68506 50.223384 L 73.22854 50.68219 L 73.22854 53.42131 L 73.68506 53.87555 L 78.25027 53.87555 C 81.52238 53.87555 84.18504 51.21289 84.18504 47.94078 C 84.18504 45.917254 83.167 44.128835 81.61711 43.057153 Z" fill="#4285f4"/>
            </g>
            <g id="Graphic_229">
              <path d="M 69.11986 53.87555 L 73.68164 53.87555 L 73.68164 50.223384 L 69.11986 50.223384 C 68.78432 50.223384 68.467034 50.1492 68.17943 50.01795 L 67.52204 50.21996 L 65.69367 52.048325 L 65.53389 52.66577 C 66.530246 53.42359 67.77312 53.87555 69.11986 53.87555 Z" fill="#34a853"/>
            </g>
            <g id="Graphic_228">
              <path d="M 69.11986 42.006015 C 65.84775 42.006015 63.18509 44.66867 63.18509 47.94078 C 63.18509 49.8673 64.108404 51.582674 65.53617 52.66691 L 68.18285 50.02023 C 67.39079 49.661864 66.837256 48.865235 66.837256 47.94078 C 66.837256 46.681926 67.861 45.65818 69.11986 45.65818 C 70.04431 45.65818 70.84094 46.21171 71.19931 47.003773 L 73.84599 44.357096 C 72.76175 42.92933 71.046375 42.006015 69.11986 42.006015 Z" fill="#fbbc05"/>
            </g>
          </g>
        </g>
        <g id="Graphic_217">
          <title>zone external - grey</title>
          <path d="M 67.9 73.9327 L 987.296 73.9327 L 987.296 240.75002 L 67.9 240.75002 Z" stroke="#616161" stroke-linecap="round" stroke-linejoin="round" stroke-dasharray="1.0,3.0" stroke-width="1"/>
          <text transform="translate(77.9 88.9327)" fill="#757575">
            <tspan font-family="Roboto" font-size="10" font-weight="400" fill="#757575" x="0" y="9">GKE - control plane private subnet (10.51.0.0/28)</tspan>
          </text>
        </g>
        <g id="Graphic_13">
          <title>zone internal - green</title>
          <rect x="77.798" y="116.9327" width="280.2" height="103.81732" fill="#e2f3ec"/>
          <rect x="77.798" y="116.9327" width="280.2" height="103.81732" stroke="white" stroke-linecap="round" stroke-linejoin="round" stroke-width="2"/>
          <text transform="translate(87.798 131.9327)" fill="#757575">
            <tspan font-family="Roboto" font-size="10" font-weight="400" fill="#757575" x="0" y="9">Region: us-central1-a</tspan>
          </text>
        </g>
        <g id="Group_14">
          <g id="Graphic_16">
            <rect x="158.39933" y="161.1327" width="119.8" height="39.61733" fill="white"/>
            <rect x="158.39933" y="161.1327" width="119.8" height="39.61733" stroke="#dfdfdf" stroke-linecap="round" stroke-linejoin="round" stroke-width="2" clip-path="url(#inner_stroke_clip_path)"/>
          </g>
          <g id="Graphic_15">
            <text transform="translate(182.4136 174.21659)" fill="#212121">
              <tspan font-family="Roboto" font-size="12" font-weight="400" fill="#212121" x="0" y="11">Control Plane</tspan>
            </text>
          </g>
        </g>
        <g id="Graphic_202">
          <title>zone internal - green</title>
          <rect x="387.198" y="116.9327" width="280.2" height="103.81732" fill="#e2f3ec"/>
          <rect x="387.198" y="116.9327" width="280.2" height="103.81732" stroke="white" stroke-linecap="round" stroke-linejoin="round" stroke-width="2"/>
          <text transform="translate(397.198 131.9327)" fill="#757575">
            <tspan font-family="Roboto" font-size="10" font-weight="400" fill="#757575" x="0" y="9">Region: us-central1-b</tspan>
          </text>
        </g>
        <g id="Graphic_206">
          <title>zone internal - green</title>
          <rect x="697.598" y="116.9327" width="280.2" height="103.81732" fill="#e2f3ec"/>
          <rect x="697.598" y="116.9327" width="280.2" height="103.81732" stroke="white" stroke-linecap="round" stroke-linejoin="round" stroke-width="2"/>
          <text transform="translate(707.598 131.9327)" fill="#757575">
            <tspan font-family="Roboto" font-size="10" font-weight="400" fill="#757575" x="0" y="9">Region: us-central1-c</tspan>
          </text>
        </g>
        <g id="Group_331">
          <g id="Graphic_333">
            <rect x="467.398" y="161.1327" width="119.8" height="39.61733" fill="white"/>
            <rect x="467.398" y="161.1327" width="119.8" height="39.61733" stroke="#dfdfdf" stroke-linecap="round" stroke-linejoin="round" stroke-width="2" clip-path="url(#inner_stroke_clip_path_2)"/>
          </g>
          <g id="Graphic_332">
            <text transform="translate(491.41227 174.21659)" fill="#212121">
              <tspan font-family="Roboto" font-size="12" font-weight="400" fill="#212121" x="0" y="11">Control Plane</tspan>
            </text>
          </g>
        </g>
        <g id="Group_334">
          <g id="Graphic_336">
            <rect x="777.9967" y="161.1327" width="119.8" height="39.61733" fill="white"/>
            <rect x="777.9967" y="161.1327" width="119.8" height="39.61733" stroke="#dfdfdf" stroke-linecap="round" stroke-linejoin="round" stroke-width="2" clip-path="url(#inner_stroke_clip_path_3)"/>
          </g>
          <g id="Graphic_335">
            <text transform="translate(802.0109 174.21659)" fill="#212121">
              <tspan font-family="Roboto" font-size="12" font-weight="400" fill="#212121" x="0" y="11">Control Plane</tspan>
            </text>
          </g>
        </g>
        <g id="Group_416">
          <g id="Graphic_417">
            <path d="M 217.84945 280.4 C 217.54945 280.4 217.34945 280.2 217.34945 280 L 217.34945 276 C 217.34945 275.7 217.54945 275.5 217.84945 275.5 C 218.14945 275.5 218.34945 275.7 218.34945 276 L 218.34945 280 C 218.34945 280.2 218.14945 280.4 217.84945 280.4 Z M 836.8495 280.1 C 836.5495 280.1 836.3495 279.9 836.3495 279.6 L 836.3495 278.5 C 836.3495 278.2 836.5495 278 836.8495 278 C 837.1495 278 837.3495 278.2 837.3495 278.5 L 837.3495 279.6 C 837.3495 279.8 837.1495 280.1 836.8495 280.1 Z M 836.8495 275 C 836.5495 275 836.3495 274.8 836.3495 274.5 L 836.3495 270.5 C 836.3495 270.2 836.5495 270 836.8495 270 C 837.1495 270 837.3495 270.2 837.3495 270.5 L 837.3495 274.5 C 837.3495 274.7 837.1495 275 836.8495 275 Z M 217.84945 272.4 C 217.54945 272.4 217.34945 272.2 217.34945 272 L 217.34945 268 C 217.34945 267.7 217.54945 267.5 217.84945 267.5 C 218.14945 267.5 218.34945 267.7 218.34945 268 L 218.34945 272 C 218.34945 272.2 218.14945 272.4 217.84945 272.4 Z M 836.8495 267 C 836.5495 267 836.3495 266.8 836.3495 266.5 L 836.3495 262.5 C 836.3495 262.2 836.5495 262 836.8495 262 C 837.1495 262 837.3495 262.2 837.3495 262.4 L 837.3495 266.4 C 837.3495 266.7 837.1495 267 836.8495 267 Z M 217.84945 264.4 C 217.54945 264.4 217.34945 264.2 217.34945 264 L 217.34945 260.7 C 217.34945 260.4 217.54945 260.2 217.84945 260.2 L 218.64945 260.2 C 218.94945 260.2 219.14945 260.4 219.14945 260.7 C 219.14945 261 218.84945 261.2 218.54945 261.2 L 218.34945 261.2 L 218.34945 264 C 218.34945 264.2 218.14945 264.4 217.84945 264.4 Z M 834.5495 261.2 L 830.5495 261.2 C 830.2495 261.2 830.0495 261 830.0495 260.7 C 830.0495 260.4 830.3495 260.2 830.5495 260.2 L 834.5495 260.2 C 834.8495 260.2 835.0495 260.4 835.0495 260.7 C 835.0495 261 834.8495 261.2 834.5495 261.2 Z M 826.5495 261.2 L 822.5495 261.2 C 822.2495 261.2 822.0495 261 822.0495 260.7 C 822.0495 260.4 822.3495 260.2 822.5495 260.2 L 826.5495 260.2 C 826.8495 260.2 827.0495 260.4 827.0495 260.7 C 827.0495 261 826.8495 261.2 826.5495 261.2 Z M 818.5495 261.2 L 814.5495 261.2 C 814.2495 261.2 814.0495 261 814.0495 260.7 C 814.0495 260.4 814.3495 260.2 814.5495 260.2 L 818.5495 260.2 C 818.8495 260.2 819.0495 260.4 819.0495 260.7 C 819.0495 261 818.8495 261.2 818.5495 261.2 Z M 810.5495 261.2 L 806.5495 261.2 C 806.2495 261.2 806.0495 261 806.0495 260.7 C 806.0495 260.4 806.3495 260.2 806.5495 260.2 L 810.5495 260.2 C 810.8495 260.2 811.0495 260.4 811.0495 260.7 C 811.0495 261 810.8495 261.2 810.5495 261.2 Z M 802.5495 261.2 L 798.5495 261.2 C 798.2495 261.2 798.0495 261 798.0495 260.7 C 798.0495 260.4 798.3495 260.2 798.5495 260.2 L 802.5495 260.2 C 802.8495 260.2 803.0495 260.4 803.0495 260.7 C 803.0495 261 802.8495 261.2 802.5495 261.2 Z M 794.5495 261.2 L 790.5495 261.2 C 790.2495 261.2 790.0495 261 790.0495 260.7 C 790.0495 260.4 790.3495 260.2 790.5495 260.2 L 794.5495 260.2 C 794.8495 260.2 795.0495 260.4 795.0495 260.7 C 795.0495 261 794.8495 261.2 794.5495 261.2 Z M 786.5495 261.2 L 782.5495 261.2 C 782.2495 261.2 782.0495 261 782.0495 260.7 C 782.0495 260.4 782.3495 260.2 782.5495 260.2 L 786.5495 260.2 C 786.8495 260.2 787.0495 260.4 787.0495 260.7 C 787.0495 261 786.8495 261.2 786.5495 261.2 Z M 778.5495 261.2 L 774.54945 261.2 C 774.24945 261.2 774.04945 261 774.04945 260.7 C 774.04945 260.4 774.34945 260.2 774.54945 260.2 L 778.5495 260.2 C 778.8495 260.2 779.0495 260.4 779.0495 260.7 C 779.0495 261 778.8495 261.2 778.5495 261.2 Z M 770.54945 261.2 L 766.54945 261.2 C 766.24945 261.2 766.04945 261 766.04945 260.7 C 766.04945 260.4 766.34945 260.2 766.54945 260.2 L 770.54945 260.2 C 770.84945 260.2 771.04945 260.4 771.04945 260.7 C 771.04945 261 770.84945 261.2 770.54945 261.2 Z M 762.54945 261.2 L 758.54945 261.2 C 758.24945 261.2 758.04945 261 758.04945 260.7 C 758.04945 260.4 758.34945 260.2 758.54945 260.2 L 762.54945 260.2 C 762.84945 260.2 763.04945 260.4 763.04945 260.7 C 763.04945 261 762.84945 261.2 762.54945 261.2 Z M 754.54945 261.2 L 750.54945 261.2 C 750.24945 261.2 750.04945 261 750.04945 260.7 C 750.04945 260.4 750.34945 260.2 750.54945 260.2 L 754.54945 260.2 C 754.84945 260.2 755.04945 260.4 755.04945 260.7 C 755.04945 261 754.84945 261.2 754.54945 261.2 Z M 746.54945 261.2 L 742.54945 261.2 C 742.24945 261.2 742.04945 261 742.04945 260.7 C 742.04945 260.4 742.34945 260.2 742.54945 260.2 L 746.54945 260.2 C 746.84945 260.2 747.04945 260.4 747.04945 260.7 C 747.04945 261 746.84945 261.2 746.54945 261.2 Z M 738.54945 261.2 L 734.54945 261.2 C 734.24945 261.2 734.04945 261 734.04945 260.7 C 734.04945 260.4 734.34945 260.2 734.54945 260.2 L 738.54945 260.2 C 738.84945 260.2 739.04945 260.4 739.04945 260.7 C 739.04945 261 738.84945 261.2 738.54945 261.2 Z M 730.54945 261.2 L 726.54945 261.2 C 726.24945 261.2 726.04945 261 726.04945 260.7 C 726.04945 260.4 726.34945 260.2 726.54945 260.2 L 730.54945 260.2 C 730.84945 260.2 731.04945 260.4 731.04945 260.7 C 731.04945 261 730.84945 261.2 730.54945 261.2 Z M 722.54945 261.2 L 718.54945 261.2 C 718.24945 261.2 718.04945 261 718.04945 260.7 C 718.04945 260.4 718.34945 260.2 718.54945 260.2 L 722.54945 260.2 C 722.84945 260.2 723.04945 260.4 723.04945 260.7 C 723.04945 261 722.84945 261.2 722.54945 261.2 Z M 714.54945 261.2 L 710.54945 261.2 C 710.24945 261.2 710.04945 261 710.04945 260.7 C 710.04945 260.4 710.34945 260.2 710.54945 260.2 L 714.54945 260.2 C 714.84945 260.2 715.04945 260.4 715.04945 260.7 C 715.04945 261 714.84945 261.2 714.54945 261.2 Z M 706.54945 261.2 L 702.54945 261.2 C 702.24945 261.2 702.04945 261 702.04945 260.7 C 702.04945 260.4 702.34945 260.2 702.54945 260.2 L 706.54945 260.2 C 706.84945 260.2 707.04945 260.4 707.04945 260.7 C 707.04945 261 706.84945 261.2 706.54945 261.2 Z M 698.54945 261.2 L 694.54945 261.2 C 694.24945 261.2 694.04945 261 694.04945 260.7 C 694.04945 260.4 694.34945 260.2 694.54945 260.2 L 698.54945 260.2 C 698.84945 260.2 699.04945 260.4 699.04945 260.7 C 699.04945 261 698.84945 261.2 698.54945 261.2 Z M 690.54945 261.2 L 686.54945 261.2 C 686.24945 261.2 686.04945 261 686.04945 260.7 C 686.04945 260.4 686.34945 260.2 686.54945 260.2 L 690.54945 260.2 C 690.84945 260.2 691.04945 260.4 691.04945 260.7 C 691.04945 261 690.84945 261.2 690.54945 261.2 Z M 682.54945 261.2 L 678.54945 261.2 C 678.24945 261.2 678.04945 261 678.04945 260.7 C 678.04945 260.4 678.34945 260.2 678.54945 260.2 L 682.54945 260.2 C 682.84945 260.2 683.04945 260.4 683.04945 260.7 C 683.04945 261 682.84945 261.2 682.54945 261.2 Z M 674.54945 261.2 L 670.54945 261.2 C 670.24945 261.2 670.04945 261 670.04945 260.7 C 670.04945 260.4 670.34945 260.2 670.54945 260.2 L 674.54945 260.2 C 674.84945 260.2 675.04945 260.4 675.04945 260.7 C 675.04945 261 674.84945 261.2 674.54945 261.2 Z M 666.54945 261.2 L 662.54945 261.2 C 662.24945 261.2 662.04945 261 662.04945 260.7 C 662.04945 260.4 662.34945 260.2 662.54945 260.2 L 666.54945 260.2 C 666.84945 260.2 667.04945 260.4 667.04945 260.7 C 667.04945 261 666.84945 261.2 666.54945 261.2 Z M 658.54945 261.2 L 654.54945 261.2 C 654.24945 261.2 654.04945 261 654.04945 260.7 C 654.04945 260.4 654.34945 260.2 654.54945 260.2 L 658.54945 260.2 C 658.84945 260.2 659.04945 260.4 659.04945 260.7 C 659.04945 261 658.84945 261.2 658.54945 261.2 Z M 650.54945 261.2 L 646.54945 261.2 C 646.24945 261.2 646.04945 261 646.04945 260.7 C 646.04945 260.4 646.34945 260.2 646.54945 260.2 L 650.54945 260.2 C 650.84945 260.2 651.04945 260.4 651.04945 260.7 C 651.04945 261 650.84945 261.2 650.54945 261.2 Z M 642.54945 261.2 L 638.54945 261.2 C 638.24945 261.2 638.04945 261 638.04945 260.7 C 638.04945 260.4 638.34945 260.2 638.54945 260.2 L 642.54945 260.2 C 642.84945 260.2 643.04945 260.4 643.04945 260.7 C 643.04945 261 642.84945 261.2 642.54945 261.2 Z M 634.54945 261.2 L 630.54945 261.2 C 630.24945 261.2 630.04945 261 630.04945 260.7 C 630.04945 260.4 630.34945 260.2 630.54945 260.2 L 634.54945 260.2 C 634.84945 260.2 635.04945 260.4 635.04945 260.7 C 635.04945 261 634.84945 261.2 634.54945 261.2 Z M 626.54945 261.2 L 622.54945 261.2 C 622.24945 261.2 622.04945 261 622.04945 260.7 C 622.04945 260.4 622.34945 260.2 622.54945 260.2 L 626.54945 260.2 C 626.84945 260.2 627.04945 260.4 627.04945 260.7 C 627.04945 261 626.84945 261.2 626.54945 261.2 Z M 618.54945 261.2 L 614.54945 261.2 C 614.24945 261.2 614.04945 261 614.04945 260.7 C 614.04945 260.4 614.34945 260.2 614.54945 260.2 L 618.54945 260.2 C 618.84945 260.2 619.04945 260.4 619.04945 260.7 C 619.04945 261 618.84945 261.2 618.54945 261.2 Z M 610.54945 261.2 L 606.54945 261.2 C 606.24945 261.2 606.04945 261 606.04945 260.7 C 606.04945 260.4 606.34945 260.2 606.54945 260.2 L 610.54945 260.2 C 610.84945 260.2 611.04945 260.4 611.04945 260.7 C 611.04945 261 610.84945 261.2 610.54945 261.2 Z M 602.54945 261.2 L 598.54945 261.2 C 598.24945 261.2 598.04945 261 598.04945 260.7 C 598.04945 260.4 598.34945 260.2 598.54945 260.2 L 602.54945 260.2 C 602.84945 260.2 603.04945 260.4 603.04945 260.7 C 603.04945 261 602.84945 261.2 602.54945 261.2 Z M 594.54945 261.2 L 590.54945 261.2 C 590.24945 261.2 590.04945 261 590.04945 260.7 C 590.04945 260.4 590.34945 260.2 590.54945 260.2 L 594.54945 260.2 C 594.84945 260.2 595.04945 260.4 595.04945 260.7 C 595.04945 261 594.84945 261.2 594.54945 261.2 Z M 586.54945 261.2 L 582.54945 261.2 C 582.24945 261.2 582.04945 261 582.04945 260.7 C 582.04945 260.4 582.34945 260.2 582.54945 260.2 L 586.54945 260.2 C 586.84945 260.2 587.04945 260.4 587.04945 260.7 C 587.04945 261 586.84945 261.2 586.54945 261.2 Z M 578.54945 261.2 L 574.54945 261.2 C 574.24945 261.2 574.04945 261 574.04945 260.7 C 574.04945 260.4 574.34945 260.2 574.54945 260.2 L 578.54945 260.2 C 578.84945 260.2 579.04945 260.4 579.04945 260.7 C 579.04945 261 578.84945 261.2 578.54945 261.2 Z M 570.54945 261.2 L 566.54945 261.2 C 566.24945 261.2 566.04945 261 566.04945 260.7 C 566.04945 260.4 566.34945 260.2 566.54945 260.2 L 570.54945 260.2 C 570.84945 260.2 571.04945 260.4 571.04945 260.7 C 571.04945 261 570.84945 261.2 570.54945 261.2 Z M 562.54945 261.2 L 558.54945 261.2 C 558.24945 261.2 558.04945 261 558.04945 260.7 C 558.04945 260.4 558.34945 260.2 558.54945 260.2 L 562.54945 260.2 C 562.84945 260.2 563.04945 260.4 563.04945 260.7 C 563.04945 261 562.84945 261.2 562.54945 261.2 Z M 554.54945 261.2 L 550.54945 261.2 C 550.24945 261.2 550.04945 261 550.04945 260.7 C 550.04945 260.4 550.34945 260.2 550.54945 260.2 L 554.54945 260.2 C 554.84945 260.2 555.04945 260.4 555.04945 260.7 C 555.04945 261 554.84945 261.2 554.54945 261.2 Z M 546.54945 261.2 L 542.54945 261.2 C 542.24945 261.2 542.04945 261 542.04945 260.7 C 542.04945 260.4 542.34945 260.2 542.54945 260.2 L 546.54945 260.2 C 546.84945 260.2 547.04945 260.4 547.04945 260.7 C 547.04945 261 546.84945 261.2 546.54945 261.2 Z M 538.54945 261.2 L 534.54945 261.2 C 534.24945 261.2 534.04945 261 534.04945 260.7 C 534.04945 260.4 534.34945 260.2 534.54945 260.2 L 538.54945 260.2 C 538.84945 260.2 539.04945 260.4 539.04945 260.7 C 539.04945 261 538.84945 261.2 538.54945 261.2 Z M 530.54945 261.2 L 526.54945 261.2 C 526.24945 261.2 526.04945 261 526.04945 260.7 C 526.04945 260.4 526.34945 260.2 526.54945 260.2 L 530.54945 260.2 C 530.84945 260.2 531.04945 260.4 531.04945 260.7 C 531.04945 261 530.84945 261.2 530.54945 261.2 Z M 522.54945 261.2 L 518.54945 261.2 C 518.24945 261.2 518.04945 261 518.04945 260.7 C 518.04945 260.4 518.34945 260.2 518.54945 260.2 L 522.54945 260.2 C 522.84945 260.2 523.04945 260.4 523.04945 260.7 C 523.04945 261 522.84945 261.2 522.54945 261.2 Z M 514.54945 261.2 L 510.54945 261.2 C 510.24945 261.2 510.04945 261 510.04945 260.7 C 510.04945 260.4 510.34945 260.2 510.54945 260.2 L 514.54945 260.2 C 514.84945 260.2 515.04945 260.4 515.04945 260.7 C 515.04945 261 514.84945 261.2 514.54945 261.2 Z M 506.54945 261.2 L 502.54945 261.2 C 502.24945 261.2 502.04945 261 502.04945 260.7 C 502.04945 260.4 502.34945 260.2 502.54945 260.2 L 506.54945 260.2 C 506.84945 260.2 507.04945 260.4 507.04945 260.7 C 507.04945 261 506.84945 261.2 506.54945 261.2 Z M 498.54945 261.2 L 494.54945 261.2 C 494.24945 261.2 494.04945 261 494.04945 260.7 C 494.04945 260.4 494.34945 260.2 494.54945 260.2 L 498.54945 260.2 C 498.84945 260.2 499.04945 260.4 499.04945 260.7 C 499.04945 261 498.84945 261.2 498.54945 261.2 Z M 490.54945 261.2 L 486.54945 261.2 C 486.24945 261.2 486.04945 261 486.04945 260.7 C 486.04945 260.4 486.34945 260.2 486.54945 260.2 L 490.54945 260.2 C 490.84945 260.2 491.04945 260.4 491.04945 260.7 C 491.04945 261 490.84945 261.2 490.54945 261.2 Z M 482.54945 261.2 L 478.54945 261.2 C 478.24945 261.2 478.04945 261 478.04945 260.7 C 478.04945 260.4 478.34945 260.2 478.54945 260.2 L 482.54945 260.2 C 482.84945 260.2 483.04945 260.4 483.04945 260.7 C 483.04945 261 482.84945 261.2 482.54945 261.2 Z M 474.54945 261.2 L 470.54945 261.2 C 470.24945 261.2 470.04945 261 470.04945 260.7 C 470.04945 260.4 470.34945 260.2 470.54945 260.2 L 474.54945 260.2 C 474.84945 260.2 475.04945 260.4 475.04945 260.7 C 475.04945 261 474.84945 261.2 474.54945 261.2 Z M 466.54945 261.2 L 462.54945 261.2 C 462.24945 261.2 462.04945 261 462.04945 260.7 C 462.04945 260.4 462.34945 260.2 462.54945 260.2 L 466.54945 260.2 C 466.84945 260.2 467.04945 260.4 467.04945 260.7 C 467.04945 261 466.84945 261.2 466.54945 261.2 Z M 458.54945 261.2 L 454.54945 261.2 C 454.24945 261.2 454.04945 261 454.04945 260.7 C 454.04945 260.4 454.34945 260.2 454.54945 260.2 L 458.54945 260.2 C 458.84945 260.2 459.04945 260.4 459.04945 260.7 C 459.04945 261 458.84945 261.2 458.54945 261.2 Z M 450.54945 261.2 L 446.54945 261.2 C 446.24945 261.2 446.04945 261 446.04945 260.7 C 446.04945 260.4 446.34945 260.2 446.54945 260.2 L 450.54945 260.2 C 450.84945 260.2 451.04945 260.4 451.04945 260.7 C 451.04945 261 450.84945 261.2 450.54945 261.2 Z M 442.54945 261.2 L 438.54945 261.2 C 438.24945 261.2 438.04945 261 438.04945 260.7 C 438.04945 260.4 438.34945 260.2 438.54945 260.2 L 442.54945 260.2 C 442.84945 260.2 443.04945 260.4 443.04945 260.7 C 443.04945 261 442.84945 261.2 442.54945 261.2 Z M 434.54945 261.2 L 430.54945 261.2 C 430.24945 261.2 430.04945 261 430.04945 260.7 C 430.04945 260.4 430.34945 260.2 430.54945 260.2 L 434.54945 260.2 C 434.84945 260.2 435.04945 260.4 435.04945 260.7 C 435.04945 261 434.84945 261.2 434.54945 261.2 Z M 426.54945 261.2 L 422.54945 261.2 C 422.24945 261.2 422.04945 261 422.04945 260.7 C 422.04945 260.4 422.34945 260.2 422.54945 260.2 L 426.54945 260.2 C 426.84945 260.2 427.04945 260.4 427.04945 260.7 C 427.04945 261 426.84945 261.2 426.54945 261.2 Z M 418.54945 261.2 L 414.54945 261.2 C 414.24945 261.2 414.04945 261 414.04945 260.7 C 414.04945 260.4 414.34945 260.2 414.54945 260.2 L 418.54945 260.2 C 418.84945 260.2 419.04945 260.4 419.04945 260.7 C 419.04945 261 418.84945 261.2 418.54945 261.2 Z M 410.54945 261.2 L 406.54945 261.2 C 406.24945 261.2 406.04945 261 406.04945 260.7 C 406.04945 260.4 406.34945 260.2 406.54945 260.2 L 410.54945 260.2 C 410.84945 260.2 411.04945 260.4 411.04945 260.7 C 411.04945 261 410.84945 261.2 410.54945 261.2 Z M 402.54945 261.2 L 398.54945 261.2 C 398.24945 261.2 398.04945 261 398.04945 260.7 C 398.04945 260.4 398.34945 260.2 398.54945 260.2 L 402.54945 260.2 C 402.84945 260.2 403.04945 260.4 403.04945 260.7 C 403.04945 261 402.84945 261.2 402.54945 261.2 Z M 394.54945 261.2 L 390.54945 261.2 C 390.24945 261.2 390.04945 261 390.04945 260.7 C 390.04945 260.4 390.34945 260.2 390.54945 260.2 L 394.54945 260.2 C 394.84945 260.2 395.04945 260.4 395.04945 260.7 C 395.04945 261 394.84945 261.2 394.54945 261.2 Z M 386.54945 261.2 L 382.54945 261.2 C 382.24945 261.2 382.04945 261 382.04945 260.7 C 382.04945 260.4 382.34945 260.2 382.54945 260.2 L 386.54945 260.2 C 386.84945 260.2 387.04945 260.4 387.04945 260.7 C 387.04945 261 386.84945 261.2 386.54945 261.2 Z M 378.54945 261.2 L 374.54945 261.2 C 374.24945 261.2 374.04945 261 374.04945 260.7 C 374.04945 260.4 374.34945 260.2 374.54945 260.2 L 378.54945 260.2 C 378.84945 260.2 379.04945 260.4 379.04945 260.7 C 379.04945 261 378.84945 261.2 378.54945 261.2 Z M 370.54945 261.2 L 366.54945 261.2 C 366.24945 261.2 366.04945 261 366.04945 260.7 C 366.04945 260.4 366.34945 260.2 366.54945 260.2 L 370.54945 260.2 C 370.84945 260.2 371.04945 260.4 371.04945 260.7 C 371.04945 261 370.84945 261.2 370.54945 261.2 Z M 362.54945 261.2 L 358.54945 261.2 C 358.24945 261.2 358.04945 261 358.04945 260.7 C 358.04945 260.4 358.34945 260.2 358.54945 260.2 L 362.54945 260.2 C 362.84945 260.2 363.04945 260.4 363.04945 260.7 C 363.04945 261 362.84945 261.2 362.54945 261.2 Z M 354.54945 261.2 L 350.54945 261.2 C 350.24945 261.2 350.04945 261 350.04945 260.7 C 350.04945 260.4 350.34945 260.2 350.54945 260.2 L 354.54945 260.2 C 354.84945 260.2 355.04945 260.4 355.04945 260.7 C 355.04945 261 354.84945 261.2 354.54945 261.2 Z M 346.54945 261.2 L 342.54945 261.2 C 342.24945 261.2 342.04945 261 342.04945 260.7 C 342.04945 260.4 342.34945 260.2 342.54945 260.2 L 346.54945 260.2 C 346.84945 260.2 347.04945 260.4 347.04945 260.7 C 347.04945 261 346.84945 261.2 346.54945 261.2 Z M 338.54945 261.2 L 334.54945 261.2 C 334.24945 261.2 334.04945 261 334.04945 260.7 C 334.04945 260.4 334.34945 260.2 334.54945 260.2 L 338.54945 260.2 C 338.84945 260.2 339.04945 260.4 339.04945 260.7 C 339.04945 261 338.84945 261.2 338.54945 261.2 Z M 330.54945 261.2 L 326.54945 261.2 C 326.24945 261.2 326.04945 261 326.04945 260.7 C 326.04945 260.4 326.34945 260.2 326.54945 260.2 L 330.54945 260.2 C 330.84945 260.2 331.04945 260.4 331.04945 260.7 C 331.04945 261 330.84945 261.2 330.54945 261.2 Z M 322.54945 261.2 L 318.54945 261.2 C 318.24945 261.2 318.04945 261 318.04945 260.7 C 318.04945 260.4 318.34945 260.2 318.54945 260.2 L 322.54945 260.2 C 322.84945 260.2 323.04945 260.4 323.04945 260.7 C 323.04945 261 322.84945 261.2 322.54945 261.2 Z M 314.54945 261.2 L 310.54945 261.2 C 310.24945 261.2 310.04945 261 310.04945 260.7 C 310.04945 260.4 310.34945 260.2 310.54945 260.2 L 314.54945 260.2 C 314.84945 260.2 315.04945 260.4 315.04945 260.7 C 315.04945 261 314.84945 261.2 314.54945 261.2 Z M 306.54945 261.2 L 302.54945 261.2 C 302.24945 261.2 302.04945 261 302.04945 260.7 C 302.04945 260.4 302.34945 260.2 302.54945 260.2 L 306.54945 260.2 C 306.84945 260.2 307.04945 260.4 307.04945 260.7 C 307.04945 261 306.84945 261.2 306.54945 261.2 Z M 298.54945 261.2 L 294.54945 261.2 C 294.24945 261.2 294.04945 261 294.04945 260.7 C 294.04945 260.4 294.34945 260.2 294.54945 260.2 L 298.54945 260.2 C 298.84945 260.2 299.04945 260.4 299.04945 260.7 C 299.04945 261 298.84945 261.2 298.54945 261.2 Z M 290.54945 261.2 L 286.54945 261.2 C 286.24945 261.2 286.04945 261 286.04945 260.7 C 286.04945 260.4 286.34945 260.2 286.54945 260.2 L 290.54945 260.2 C 290.84945 260.2 291.04945 260.4 291.04945 260.7 C 291.04945 261 290.84945 261.2 290.54945 261.2 Z M 282.54945 261.2 L 278.54945 261.2 C 278.24945 261.2 278.04945 261 278.04945 260.7 C 278.04945 260.4 278.34945 260.2 278.54945 260.2 L 282.54945 260.2 C 282.84945 260.2 283.04945 260.4 283.04945 260.7 C 283.04945 261 282.84945 261.2 282.54945 261.2 Z M 274.54945 261.2 L 270.54945 261.2 C 270.24945 261.2 270.04945 261 270.04945 260.7 C 270.04945 260.4 270.34945 260.2 270.54945 260.2 L 274.54945 260.2 C 274.84945 260.2 275.04945 260.4 275.04945 260.7 C 275.04945 261 274.84945 261.2 274.54945 261.2 Z M 266.54945 261.2 L 262.54945 261.2 C 262.24945 261.2 262.04945 261 262.04945 260.7 C 262.04945 260.4 262.34945 260.2 262.54945 260.2 L 266.54945 260.2 C 266.84945 260.2 267.04945 260.4 267.04945 260.7 C 267.04945 261 266.84945 261.2 266.54945 261.2 Z M 258.54945 261.2 L 254.54945 261.2 C 254.24945 261.2 254.04945 261 254.04945 260.7 C 254.04945 260.4 254.34945 260.2 254.54945 260.2 L 258.54945 260.2 C 258.84945 260.2 259.04945 260.4 259.04945 260.7 C 259.04945 261 258.84945 261.2 258.54945 261.2 Z M 250.54945 261.2 L 246.54945 261.2 C 246.24945 261.2 246.04945 261 246.04945 260.7 C 246.04945 260.4 246.34945 260.2 246.54945 260.2 L 250.54945 260.2 C 250.84945 260.2 251.04945 260.4 251.04945 260.7 C 251.04945 261 250.84945 261.2 250.54945 261.2 Z M 242.54945 261.2 L 238.54945 261.2 C 238.24945 261.2 238.04945 261 238.04945 260.7 C 238.04945 260.4 238.34945 260.2 238.54945 260.2 L 242.54945 260.2 C 242.84945 260.2 243.04945 260.4 243.04945 260.7 C 243.04945 261 242.84945 261.2 242.54945 261.2 Z M 234.54945 261.2 L 230.54945 261.2 C 230.24945 261.2 230.04945 261 230.04945 260.7 C 230.04945 260.4 230.34945 260.2 230.54945 260.2 L 234.54945 260.2 C 234.84945 260.2 235.04945 260.4 235.04945 260.7 C 235.04945 261 234.84945 261.2 234.54945 261.2 Z M 226.54945 261.2 L 222.54945 261.2 C 222.34945 261.2 222.14945 261 222.14945 260.7 C 222.14945 260.4 222.34945 260.2 222.54945 260.2 L 226.54945 260.2 C 226.84945 260.2 227.04945 260.4 227.04945 260.7 C 227.04945 261 226.84945 261.2 226.54945 261.2 Z" fill="#4285f4"/>
          </g>
        </g>
        <g id="Group_418">
          <g id="Graphic_419">
            <path d="M 527.598 278.9625 C 527.298 278.9625 527.098 278.7625 527.098 278.4625 L 527.098 274.4625 C 527.098 274.1625 527.298 273.9625 527.598 273.9625 C 527.898 273.9625 528.098 274.1625 528.098 274.4625 L 528.098 278.4625 C 528.098 278.7625 527.898 278.9625 527.598 278.9625 Z M 527.598 270.9625 C 527.298 270.9625 527.098 270.7625 527.098 270.4625 L 527.098 266.4625 C 527.098 266.1625 527.298 265.9625 527.598 265.9625 C 527.898 265.9625 528.098 266.1625 528.098 266.4625 L 528.098 270.4625 C 528.098 270.7625 527.898 270.9625 527.598 270.9625 Z M 527.598 262.9625 C 527.298 262.9625 527.098 262.7625 527.098 262.4625 L 527.098 258.4625 C 527.098 258.1625 527.298 257.9625 527.598 257.9625 C 527.898 257.9625 528.098 258.1625 528.098 258.4625 L 528.098 262.4625 C 528.098 262.7625 527.898 262.9625 527.598 262.9625 Z M 527.598 254.9625 C 527.298 254.9625 527.098 254.7625 527.098 254.4625 L 527.098 250.4625 C 527.098 250.1625 527.298 249.9625 527.598 249.9625 C 527.898 249.9625 528.098 250.1625 528.098 250.4625 L 528.098 254.4625 C 528.098 254.7625 527.898 254.9625 527.598 254.9625 Z M 527.598 246.9625 C 527.298 246.9625 527.098 246.7625 527.098 246.4625 L 527.098 242.4625 C 527.098 242.1625 527.298 241.9625 527.598 241.9625 C 527.898 241.9625 528.098 242.1625 528.098 242.4625 L 528.098 246.4625 C 528.098 246.7625 527.898 246.9625 527.598 246.9625 Z" fill="#4285f4"/>
          </g>
        </g>
        <g id="Graphic_20">
          <title>zone internal - green</title>
          <rect x="67.9" y="280.75" width="299.79867" height="357.26726" fill="#e2f3ec"/>
          <rect x="67.9" y="280.75" width="299.79867" height="357.26726" stroke="white" stroke-linecap="round" stroke-linejoin="round" stroke-width="2"/>
          <text transform="translate(77.9 295.75)" fill="#757575">
            <tspan font-family="Roboto" font-size="10" font-weight="400" fill="#757575" x="0" y="9">Worker nodes: us-central1-a</tspan>
          </text>
        </g>
        <g id="Graphic_256">
          <title>zone internal - blue</title>
          <rect x="179.7" y="325.95" width="78.65001" height="292.06727" fill="#e1f6fe"/>
          <rect x="179.7" y="325.95" width="78.65001" height="292.06727" stroke="white" stroke-linecap="round" stroke-linejoin="round" stroke-width="2"/>
          <text transform="translate(189.7 340.95)" fill="#757575">
            <tspan font-family="Roboto" font-size="10" font-weight="400" fill="#757575" x="0" y="9">Node 2</tspan>
          </text>
        </g>
        <g id="Graphic_257">
          <title>zone internal - blue</title>
          <rect x="267.99866" y="325.95" width="89.70001" height="292.06727" fill="#e1f6fe"/>
          <rect x="267.99866" y="325.95" width="89.70001" height="292.06727" stroke="white" stroke-linecap="round" stroke-linejoin="round" stroke-width="2"/>
          <text transform="translate(277.99866 340.95)" fill="#757575">
            <tspan font-family="Roboto" font-size="10" font-weight="400" fill="#757575" x="0" y="9">Node 3</tspan>
          </text>
        </g>
        <g id="Graphic_254">
          <title>zone internal - blue</title>
          <rect x="77.9" y="325.95" width="89.70001" height="292.06727" fill="#e1f6fe"/>
          <rect x="77.9" y="325.95" width="89.70001" height="292.06727" stroke="white" stroke-linecap="round" stroke-linejoin="round" stroke-width="2"/>
          <text transform="translate(87.9 340.95)" fill="#757575">
            <tspan font-family="Roboto" font-size="10" font-weight="400" fill="#757575" x="0" y="9">Node 1</tspan>
          </text>
        </g>
        <g id="Graphic_28">
          <title>zone external - grey</title>
          <path d="M 87.9 369.75 L 347.69867 369.75 L 347.69867 473.56733 L 87.9 473.56733 Z" stroke="#616161" stroke-linecap="round" stroke-linejoin="round" stroke-dasharray="1.0,3.0" stroke-width="1"/>
          <text transform="translate(97.9 384.75)" fill="#757575">
            <tspan font-family="Roboto" font-size="10" font-weight="400" fill="#757575" x="0" y="9">Namespace A</tspan>
          </text>
        </g>
        <g id="Group_29">
          <g id="Graphic_31">
            <rect x="97.9" y="414.95" width="59.70001" height="39.0673" fill="white"/>
            <rect x="97.9" y="414.95" width="59.70001" height="39.0673" stroke="#dfdfdf" stroke-linecap="round" stroke-linejoin="round" stroke-width="2" clip-path="url(#inner_stroke_clip_path_4)"/>
          </g>
          <g id="Graphic_30">
            <text transform="translate(117.18858 427.8109)" fill="#212121">
              <tspan font-family="Roboto" font-size="12" font-weight="400" fill="#212121" x="0" y="11">Pod</tspan>
            </text>
          </g>
        </g>
        <g id="Graphic_40">
          <title>zone external - grey</title>
          <path d="M 87.9 493.5673 L 347.69867 493.5673 L 347.69867 598.0173 L 87.9 598.0173 Z" stroke="#616161" stroke-linecap="round" stroke-linejoin="round" stroke-dasharray="1.0,3.0" stroke-width="1"/>
          <text transform="translate(97.9 508.5673)" fill="#757575">
            <tspan font-family="Roboto" font-size="10" font-weight="400" fill="#757575" x="0" y="9">Namespace B</tspan>
          </text>
        </g>
        <g id="Group_337">
          <g id="Graphic_339">
            <rect x="189.175" y="414.95" width="59.70001" height="39.0673" fill="white"/>
            <rect x="189.175" y="414.95" width="59.70001" height="39.0673" stroke="#dfdfdf" stroke-linecap="round" stroke-linejoin="round" stroke-width="2" clip-path="url(#inner_stroke_clip_path_5)"/>
          </g>
          <g id="Graphic_338">
            <text transform="translate(208.46358 427.8109)" fill="#212121">
              <tspan font-family="Roboto" font-size="12" font-weight="400" fill="#212121" x="0" y="11">Pod</tspan>
            </text>
          </g>
        </g>
        <g id="Group_340">
          <g id="Graphic_342">
            <rect x="277.99866" y="414.95" width="59.70001" height="39.0673" fill="white"/>
            <rect x="277.99866" y="414.95" width="59.70001" height="39.0673" stroke="#dfdfdf" stroke-linecap="round" stroke-linejoin="round" stroke-width="2" clip-path="url(#inner_stroke_clip_path_6)"/>
          </g>
          <g id="Graphic_341">
            <text transform="translate(297.28724 427.8109)" fill="#212121">
              <tspan font-family="Roboto" font-size="12" font-weight="400" fill="#212121" x="0" y="11">Pod</tspan>
            </text>
          </g>
        </g>
        <g id="Group_343">
          <g id="Graphic_345">
            <rect x="97.9" y="538.95" width="59.70001" height="39.0673" fill="white"/>
            <rect x="97.9" y="538.95" width="59.70001" height="39.0673" stroke="#dfdfdf" stroke-linecap="round" stroke-linejoin="round" stroke-width="2" clip-path="url(#inner_stroke_clip_path_7)"/>
          </g>
          <g id="Graphic_344">
            <text transform="translate(117.18858 551.8109)" fill="#212121">
              <tspan font-family="Roboto" font-size="12" font-weight="400" fill="#212121" x="0" y="11">Pod</tspan>
            </text>
          </g>
        </g>
        <g id="Group_346">
          <g id="Graphic_348">
            <rect x="189.175" y="538.95" width="59.70001" height="39.0673" fill="white"/>
            <rect x="189.175" y="538.95" width="59.70001" height="39.0673" stroke="#dfdfdf" stroke-linecap="round" stroke-linejoin="round" stroke-width="2" clip-path="url(#inner_stroke_clip_path_8)"/>
          </g>
          <g id="Graphic_347">
            <text transform="translate(208.46358 551.8109)" fill="#212121">
              <tspan font-family="Roboto" font-size="12" font-weight="400" fill="#212121" x="0" y="11">Pod</tspan>
            </text>
          </g>
        </g>
        <g id="Group_349">
          <g id="Graphic_351">
            <rect x="277.99866" y="538.95" width="59.70001" height="39.0673" fill="white"/>
            <rect x="277.99866" y="538.95" width="59.70001" height="39.0673" stroke="#dfdfdf" stroke-linecap="round" stroke-linejoin="round" stroke-width="2" clip-path="url(#inner_stroke_clip_path_9)"/>
          </g>
          <g id="Graphic_350">
            <text transform="translate(297.28724 551.8109)" fill="#212121">
              <tspan font-family="Roboto" font-size="12" font-weight="400" fill="#212121" x="0" y="11">Pod</tspan>
            </text>
          </g>
        </g>
        <g id="Graphic_377">
          <title>zone internal - green</title>
          <rect x="378.19867" y="280.75" width="299.79867" height="357.26726" fill="#e2f3ec"/>
          <rect x="378.19867" y="280.75" width="299.79867" height="357.26726" stroke="white" stroke-linecap="round" stroke-linejoin="round" stroke-width="2"/>
          <text transform="translate(388.19867 295.75)" fill="#757575">
            <tspan font-family="Roboto" font-size="10" font-weight="400" fill="#757575" x="0" y="9">Worker nodes: us-central1-b</tspan>
          </text>
        </g>
        <g id="Graphic_376">
          <title>zone internal - blue</title>
          <rect x="489.9987" y="325.95" width="78.65001" height="292.06727" fill="#e1f6fe"/>
          <rect x="489.9987" y="325.95" width="78.65001" height="292.06727" stroke="white" stroke-linecap="round" stroke-linejoin="round" stroke-width="2"/>
          <text transform="translate(499.9987 340.95)" fill="#757575">
            <tspan font-family="Roboto" font-size="10" font-weight="400" fill="#757575" x="0" y="9">Node 2</tspan>
          </text>
        </g>
        <g id="Graphic_375">
          <title>zone internal - blue</title>
          <rect x="578.2973" y="325.95" width="89.70001" height="292.06727" fill="#e1f6fe"/>
          <rect x="578.2973" y="325.95" width="89.70001" height="292.06727" stroke="white" stroke-linecap="round" stroke-linejoin="round" stroke-width="2"/>
          <text transform="translate(588.2973 340.95)" fill="#757575">
            <tspan font-family="Roboto" font-size="10" font-weight="400" fill="#757575" x="0" y="9">Node 3</tspan>
          </text>
        </g>
        <g id="Graphic_374">
          <title>zone internal - blue</title>
          <rect x="388.19867" y="325.95" width="89.70001" height="292.06727" fill="#e1f6fe"/>
          <rect x="388.19867" y="325.95" width="89.70001" height="292.06727" stroke="white" stroke-linecap="round" stroke-linejoin="round" stroke-width="2"/>
          <text transform="translate(398.19867 340.95)" fill="#757575">
            <tspan font-family="Roboto" font-size="10" font-weight="400" fill="#757575" x="0" y="9">Node 1</tspan>
          </text>
        </g>
        <g id="Graphic_373">
          <title>zone external - grey</title>
          <path d="M 398.19867 369.75 L 657.9973 369.75 L 657.9973 473.56733 L 398.19867 473.56733 Z" stroke="#616161" stroke-linecap="round" stroke-linejoin="round" stroke-dasharray="1.0,3.0" stroke-width="1"/>
          <text transform="translate(408.19867 384.75)" fill="#757575">
            <tspan font-family="Roboto" font-size="10" font-weight="400" fill="#757575" x="0" y="9">Namespace A</tspan>
          </text>
        </g>
        <g id="Group_370">
          <g id="Graphic_372">
            <rect x="408.19867" y="414.95" width="59.70001" height="39.0673" fill="white"/>
            <rect x="408.19867" y="414.95" width="59.70001" height="39.0673" stroke="#dfdfdf" stroke-linecap="round" stroke-linejoin="round" stroke-width="2" clip-path="url(#inner_stroke_clip_path_10)"/>
          </g>
          <g id="Graphic_371">
            <text transform="translate(427.48725 427.8109)" fill="#212121">
              <tspan font-family="Roboto" font-size="12" font-weight="400" fill="#212121" x="0" y="11">Pod</tspan>
            </text>
          </g>
        </g>
        <g id="Graphic_369">
          <title>zone external - grey</title>
          <path d="M 398.19867 493.5673 L 657.9973 493.5673 L 657.9973 598.0173 L 398.19867 598.0173 Z" stroke="#616161" stroke-linecap="round" stroke-linejoin="round" stroke-dasharray="1.0,3.0" stroke-width="1"/>
          <text transform="translate(408.19867 508.5673)" fill="#757575">
            <tspan font-family="Roboto" font-size="10" font-weight="400" fill="#757575" x="0" y="9">Namespace B</tspan>
          </text>
        </g>
        <g id="Group_366">
          <g id="Graphic_368">
            <rect x="499.4737" y="414.95" width="59.70001" height="39.0673" fill="white"/>
            <rect x="499.4737" y="414.95" width="59.70001" height="39.0673" stroke="#dfdfdf" stroke-linecap="round" stroke-linejoin="round" stroke-width="2" clip-path="url(#inner_stroke_clip_path_11)"/>
          </g>
          <g id="Graphic_367">
            <text transform="translate(518.76225 427.8109)" fill="#212121">
              <tspan font-family="Roboto" font-size="12" font-weight="400" fill="#212121" x="0" y="11">Pod</tspan>
            </text>
          </g>
        </g>
        <g id="Group_363">
          <g id="Graphic_365">
            <rect x="588.2973" y="414.95" width="59.70001" height="39.0673" fill="white"/>
            <rect x="588.2973" y="414.95" width="59.70001" height="39.0673" stroke="#dfdfdf" stroke-linecap="round" stroke-linejoin="round" stroke-width="2" clip-path="url(#inner_stroke_clip_path_12)"/>
          </g>
          <g id="Graphic_364">
            <text transform="translate(607.5859 427.8109)" fill="#212121">
              <tspan font-family="Roboto" font-size="12" font-weight="400" fill="#212121" x="0" y="11">Pod</tspan>
            </text>
          </g>
        </g>
        <g id="Group_360">
          <g id="Graphic_362">
            <rect x="408.19867" y="538.95" width="59.70001" height="39.0673" fill="white"/>
            <rect x="408.19867" y="538.95" width="59.70001" height="39.0673" stroke="#dfdfdf" stroke-linecap="round" stroke-linejoin="round" stroke-width="2" clip-path="url(#inner_stroke_clip_path_13)"/>
          </g>
          <g id="Graphic_361">
            <text transform="translate(427.48725 551.8109)" fill="#212121">
              <tspan font-family="Roboto" font-size="12" font-weight="400" fill="#212121" x="0" y="11">Pod</tspan>
            </text>
          </g>
        </g>
        <g id="Group_357">
          <g id="Graphic_359">
            <rect x="499.4737" y="538.95" width="59.70001" height="39.0673" fill="white"/>
            <rect x="499.4737" y="538.95" width="59.70001" height="39.0673" stroke="#dfdfdf" stroke-linecap="round" stroke-linejoin="round" stroke-width="2" clip-path="url(#inner_stroke_clip_path_14)"/>
          </g>
          <g id="Graphic_358">
            <text transform="translate(518.76225 551.8109)" fill="#212121">
              <tspan font-family="Roboto" font-size="12" font-weight="400" fill="#212121" x="0" y="11">Pod</tspan>
            </text>
          </g>
        </g>
        <g id="Group_354">
          <g id="Graphic_356">
            <rect x="588.2973" y="538.95" width="59.70001" height="39.0673" fill="white"/>
            <rect x="588.2973" y="538.95" width="59.70001" height="39.0673" stroke="#dfdfdf" stroke-linecap="round" stroke-linejoin="round" stroke-width="2" clip-path="url(#inner_stroke_clip_path_15)"/>
          </g>
          <g id="Graphic_355">
            <text transform="translate(607.5859 551.8109)" fill="#212121">
              <tspan font-family="Roboto" font-size="12" font-weight="400" fill="#212121" x="0" y="11">Pod</tspan>
            </text>
          </g>
        </g>
        <g id="Graphic_402">
          <title>zone internal - green</title>
          <rect x="687.4973" y="280.75" width="299.79867" height="357.26726" fill="#e2f3ec"/>
          <rect x="687.4973" y="280.75" width="299.79867" height="357.26726" stroke="white" stroke-linecap="round" stroke-linejoin="round" stroke-width="2"/>
          <text transform="translate(697.4973 295.75)" fill="#757575">
            <tspan font-family="Roboto" font-size="10" font-weight="400" fill="#757575" x="0" y="9">Worker nodes: us-central1-c</tspan>
          </text>
        </g>
        <g id="Graphic_401">
          <title>zone internal - blue</title>
          <rect x="799.2973" y="325.95" width="78.65001" height="292.06727" fill="#e1f6fe"/>
          <rect x="799.2973" y="325.95" width="78.65001" height="292.06727" stroke="white" stroke-linecap="round" stroke-linejoin="round" stroke-width="2"/>
          <text transform="translate(809.2973 340.95)" fill="#757575">
            <tspan font-family="Roboto" font-size="10" font-weight="400" fill="#757575" x="0" y="9">Node 2</tspan>
          </text>
        </g>
        <g id="Graphic_400">
          <title>zone internal - blue</title>
          <rect x="887.596" y="325.95" width="89.70001" height="292.06727" fill="#e1f6fe"/>
          <rect x="887.596" y="325.95" width="89.70001" height="292.06727" stroke="white" stroke-linecap="round" stroke-linejoin="round" stroke-width="2"/>
          <text transform="translate(897.596 340.95)" fill="#757575">
            <tspan font-family="Roboto" font-size="10" font-weight="400" fill="#757575" x="0" y="9">Node 3</tspan>
          </text>
        </g>
        <g id="Graphic_399">
          <title>zone internal - blue</title>
          <rect x="697.4973" y="325.95" width="89.70001" height="292.06727" fill="#e1f6fe"/>
          <rect x="697.4973" y="325.95" width="89.70001" height="292.06727" stroke="white" stroke-linecap="round" stroke-linejoin="round" stroke-width="2"/>
          <text transform="translate(707.4973 340.95)" fill="#757575">
            <tspan font-family="Roboto" font-size="10" font-weight="400" fill="#757575" x="0" y="9">Node 1</tspan>
          </text>
        </g>
        <g id="Graphic_398">
          <title>zone external - grey</title>
          <path d="M 707.4973 369.75 L 967.296 369.75 L 967.296 473.56733 L 707.4973 473.56733 Z" stroke="#616161" stroke-linecap="round" stroke-linejoin="round" stroke-dasharray="1.0,3.0" stroke-width="1"/>
          <text transform="translate(717.4973 384.75)" fill="#757575">
            <tspan font-family="Roboto" font-size="10" font-weight="400" fill="#757575" x="0" y="9">Namespace A</tspan>
          </text>
        </g>
        <g id="Group_395">
          <g id="Graphic_397">
            <rect x="717.4973" y="414.95" width="59.70001" height="39.0673" fill="white"/>
            <rect x="717.4973" y="414.95" width="59.70001" height="39.0673" stroke="#dfdfdf" stroke-linecap="round" stroke-linejoin="round" stroke-width="2" clip-path="url(#inner_stroke_clip_path_16)"/>
          </g>
          <g id="Graphic_396">
            <text transform="translate(736.7859 427.8109)" fill="#212121">
              <tspan font-family="Roboto" font-size="12" font-weight="400" fill="#212121" x="0" y="11">Pod</tspan>
            </text>
          </g>
        </g>
        <g id="Graphic_394">
          <title>zone external - grey</title>
          <path d="M 707.4973 493.5673 L 967.296 493.5673 L 967.296 598.0173 L 707.4973 598.0173 Z" stroke="#616161" stroke-linecap="round" stroke-linejoin="round" stroke-dasharray="1.0,3.0" stroke-width="1"/>
          <text transform="translate(717.4973 508.5673)" fill="#757575">
            <tspan font-family="Roboto" font-size="10" font-weight="400" fill="#757575" x="0" y="9">Namespace B</tspan>
          </text>
        </g>
        <g id="Group_391">
          <g id="Graphic_393">
            <rect x="808.7723" y="414.95" width="59.70001" height="39.0673" fill="white"/>
            <rect x="808.7723" y="414.95" width="59.70001" height="39.0673" stroke="#dfdfdf" stroke-linecap="round" stroke-linejoin="round" stroke-width="2" clip-path="url(#inner_stroke_clip_path_17)"/>
          </g>
          <g id="Graphic_392">
            <text transform="translate(828.0609 427.8109)" fill="#212121">
              <tspan font-family="Roboto" font-size="12" font-weight="400" fill="#212121" x="0" y="11">Pod</tspan>
            </text>
          </g>
        </g>
        <g id="Group_388">
          <g id="Graphic_390">
            <rect x="897.596" y="414.95" width="59.70001" height="39.0673" fill="white"/>
            <rect x="897.596" y="414.95" width="59.70001" height="39.0673" stroke="#dfdfdf" stroke-linecap="round" stroke-linejoin="round" stroke-width="2" clip-path="url(#inner_stroke_clip_path_18)"/>
          </g>
          <g id="Graphic_389">
            <text transform="translate(916.8846 427.8109)" fill="#212121">
              <tspan font-family="Roboto" font-size="12" font-weight="400" fill="#212121" x="0" y="11">Pod</tspan>
            </text>
          </g>
        </g>
        <g id="Group_385">
          <g id="Graphic_387">
            <rect x="717.4973" y="538.95" width="59.70001" height="39.0673" fill="white"/>
            <rect x="717.4973" y="538.95" width="59.70001" height="39.0673" stroke="#dfdfdf" stroke-linecap="round" stroke-linejoin="round" stroke-width="2" clip-path="url(#inner_stroke_clip_path_19)"/>
          </g>
          <g id="Graphic_386">
            <text transform="translate(736.7859 551.8109)" fill="#212121">
              <tspan font-family="Roboto" font-size="12" font-weight="400" fill="#212121" x="0" y="11">Pod</tspan>
            </text>
          </g>
        </g>
        <g id="Group_382">
          <g id="Graphic_384">
            <rect x="808.7723" y="538.95" width="59.70001" height="39.0673" fill="white"/>
            <rect x="808.7723" y="538.95" width="59.70001" height="39.0673" stroke="#dfdfdf" stroke-linecap="round" stroke-linejoin="round" stroke-width="2" clip-path="url(#inner_stroke_clip_path_20)"/>
          </g>
          <g id="Graphic_383">
            <text transform="translate(828.0609 551.8109)" fill="#212121">
              <tspan font-family="Roboto" font-size="12" font-weight="400" fill="#212121" x="0" y="11">Pod</tspan>
            </text>
          </g>
        </g>
        <g id="Group_379">
          <g id="Graphic_381">
            <rect x="897.596" y="538.95" width="59.70001" height="39.0673" fill="white"/>
            <rect x="897.596" y="538.95" width="59.70001" height="39.0673" stroke="#dfdfdf" stroke-linecap="round" stroke-linejoin="round" stroke-width="2" clip-path="url(#inner_stroke_clip_path_21)"/>
          </g>
          <g id="Graphic_380">
            <text transform="translate(916.8846 551.8109)" fill="#212121">
              <tspan font-family="Roboto" font-size="12" font-weight="400" fill="#212121" x="0" y="11">Pod</tspan>
            </text>
          </g>
        </g>
      </g>
    </g>
  </g>
</svg>
