<?xml version="1.0" encoding="UTF-8" standalone="no"?>
<!DOCTYPE svg PUBLIC "-//W3C//DTD SVG 1.1//EN" "http://www.w3.org/Graphics/SVG/1.1/DTD/svg11.dtd">
<svg xmlns:xl="http://www.w3.org/1999/xlink" xmlns="http://www.w3.org/2000/svg" xmlns:dc="http://purl.org/dc/elements/1.1/" version="1.1" viewBox="1232 1199 998 457" width="998" height="457">
  <defs>
    <font-face font-family="Roboto" font-size="10" panose-1="2 0 0 0 0 0 0 0 0 0" units-per-em="1000" underline-position="-73.24219" underline-thickness="48.828125" slope="0" x-height="528.3203" cap-height="710.9375" ascent="927.7344" descent="-244.14062" font-weight="400">
      <font-face-src>
        <font-face-name name="Roboto-Regular"/>
      </font-face-src>
    </font-face>
    <clipPath id="inner_stroke_clip_path">
      <path d="M 2129.521 1380 L 2229.321 1380 L 2229.321 1436 L 2129.521 1436 Z"/>
    </clipPath>
    <font-face font-family="Roboto" font-size="12" panose-1="2 0 0 0 0 0 0 0 0 0" units-per-em="1000" underline-position="-73.24219" underline-thickness="48.828125" slope="0" x-height="528.3203" cap-height="710.9375" ascent="927.7344" descent="-244.14062" font-weight="400">
      <font-face-src>
        <font-face-name name="Roboto-Regular"/>
      </font-face-src>
    </font-face>
    <clipPath id="inner_stroke_clip_path_2">
      <path d="M 1549.2211 1380 L 1649.0211 1380 L 1649.0211 1436 L 1549.2211 1436 Z"/>
    </clipPath>
    <clipPath id="inner_stroke_clip_path_3">
      <path d="M 1313 1380 L 1412.8 1380 L 1412.8 1436 L 1313 1436 Z"/>
    </clipPath>
    <clipPath id="inner_stroke_clip_path_4">
      <path d="M 1865.5 1380 L 1965.3 1380 L 1965.3 1436 L 1865.5 1436 Z"/>
    </clipPath>
    <clipPath id="inner_stroke_clip_path_5">
      <path d="M 1633.5158 1535 L 1881.0053 1535 L 1881.0053 1654.8 L 1633.5158 1654.8 Z"/>
    </clipPath>
  </defs>
  <metadata> Produced by OmniGraffle 7.10.1
    <dc:date>2020-12-28 11:21:30 +0000</dc:date>
  </metadata>
  <g id="Canvas_7" stroke="none" stroke-opacity="1" fill="none" stroke-dasharray="none" fill-opacity="1">
    <title>TLS origination</title>
    <rect fill="white" x="1232" y="1199" width="998" height="457"/>
    <g id="Canvas_7: Layer 1">
      <title>Layer 1</title>
      <g id="Group_128">
        <g id="Group_92">
          <g id="Graphic_110">
            <title>zone external - blue</title>
            <rect x="1232.4" y="1199.2" width="812.9" height="316" fill="#e1f6fe"/>
            <text transform="translate(1263.4 1218.2)" fill="#757575">
              <tspan font-family="Roboto" font-size="10" font-weight="400" fill="#757575" x="0" y="9">VPC</tspan>
            </text>
          </g>
          <g id="Group_93">
            <g id="Graphic_109">
              <rect x="1252.0391" y="1215.4" width="4.731055" height="4.731055" fill="#aecbfa"/>
            </g>
            <g id="Graphic_108">
              <rect x="1254.4047" y="1215.4" width="2.3655274" height="4.731055" fill="#669df6"/>
            </g>
            <g id="Graphic_107">
              <rect x="1252.0391" y="1226.4392" width="4.731055" height="4.731055" fill="#aecbfa"/>
            </g>
            <g id="Graphic_106">
              <rect x="1254.4047" y="1226.4392" width="2.3655274" height="4.731055" fill="#669df6"/>
            </g>
            <g id="Graphic_105">
              <rect x="1241" y="1215.4" width="4.731055" height="4.731055" fill="#aecbfa"/>
            </g>
            <g id="Graphic_104">
              <rect x="1243.3655" y="1215.4" width="2.3655274" height="4.731055" fill="#669df6"/>
            </g>
            <g id="Graphic_103">
              <rect x="1241" y="1226.4392" width="4.731055" height="4.731055" fill="#aecbfa"/>
            </g>
            <g id="Graphic_102">
              <rect x="1243.3655" y="1226.4392" width="2.3655274" height="4.731055" fill="#669df6"/>
            </g>
            <g id="Graphic_101">
              <rect x="1245.731" y="1216.977" width="6.308073" height="1.5770183" fill="#669df6"/>
            </g>
            <g id="Graphic_100">
              <rect x="1245.731" y="1228.0162" width="6.308073" height="1.5770183" fill="#669df6"/>
            </g>
            <g id="Graphic_99">
              <rect x="1253.6162" y="1220.1311" width="1.5770183" height="6.308073" fill="#669df6"/>
            </g>
            <g id="Graphic_98">
              <rect x="1242.577" y="1220.1311" width="1.5770183" height="6.308073" fill="#669df6"/>
            </g>
            <g id="Graphic_97">
              <rect x="1242.577" y="1220.1311" width="1.5770183" height="1.5770183" fill="#4285f4"/>
            </g>
            <g id="Graphic_96">
              <rect x="1253.6162" y="1220.1311" width="1.5770183" height="1.5770183" fill="#4285f4"/>
            </g>
            <g id="Graphic_95">
              <rect x="1245.731" y="1216.977" width="1.5770183" height="1.5770183" fill="#4285f4"/>
            </g>
            <g id="Graphic_94">
              <rect x="1245.731" y="1228.0162" width="1.5770183" height="1.5770183" fill="#4285f4"/>
            </g>
          </g>
        </g>
        <g id="Group_60">
          <g id="Graphic_69">
            <title>zone internal - grey</title>
            <rect x="1252.4" y="1247.8" width="772.9" height="248.2" fill="#eaedef"/>
            <rect x="1252.4" y="1247.8" width="772.9" height="248.2" stroke="white" stroke-linecap="round" stroke-linejoin="round" stroke-width="2"/>
            <text transform="translate(1286.4 1262.8)" fill="#757575">
              <tspan font-family="Roboto" font-size="10" font-weight="400" fill="#757575" x="0" y="9">Kubernetes Engine Cluster</tspan>
            </text>
          </g>
          <g id="Group_61">
            <title>Shape</title>
            <g id="Graphic_68">
              <path d="M 1273.6527 1269.3622 L 1278.0525 1271.9214 L 1278.0525 1272.8848 L 1273.2756 1270.1115 Z" fill="#4285f4"/>
            </g>
            <g id="Graphic_67">
              <path d="M 1269.1079 1269.9363 L 1264.0698 1272.8653 L 1263.7604 1272.0868 L 1268.6727 1269.226 Z" fill="#669df6"/>
            </g>
            <g id="Graphic_66">
              <title>Rectangle-path</title>
              <rect x="1270.626" y="1259.8553" width=".8316112" height="5.6243736" fill="#aecbfa"/>
            </g>
            <g id="Graphic_65">
              <path d="M 1262.6 1263.4654 L 1262.6 1273.1961 L 1271.0612 1278.0615 L 1279.5127 1273.1961 L 1279.5127 1263.4654 L 1271.0612 1258.6 Z M 1277.714 1272.116 L 1271.0612 1275.9013 L 1264.4083 1272.116 L 1264.4083 1264.5455 L 1271.0612 1260.7602 L 1277.7044 1264.5455 L 1277.7044 1272.116 Z" fill="#aecbfa"/>
            </g>
            <g id="Graphic_64">
              <path d="M 1271.0418 1267.8442 L 1274.8905 1265.6159 L 1271.0418 1263.3778 L 1267.2029 1265.6159 Z" fill="#aecbfa"/>
            </g>
            <g id="Graphic_63">
              <path d="M 1270.597 1268.6227 L 1266.8644 1266.3943 L 1266.8644 1270.8608 L 1270.597 1273.0891 Z" fill="#669df6"/>
            </g>
            <g id="Graphic_62">
              <path d="M 1271.5253 1268.6227 L 1271.5253 1273.0891 L 1275.2579 1270.8608 L 1275.2579 1266.3943 Z" fill="#4285f4"/>
            </g>
          </g>
        </g>
        <g id="Graphic_59">
          <title>zone internal - purple</title>
          <rect x="1271.4" y="1291.6" width="417.6211" height="184.4" fill="#eee6f8"/>
          <rect x="1271.4" y="1291.6" width="417.6211" height="184.4" stroke="white" stroke-linecap="round" stroke-linejoin="round" stroke-width="2"/>
          <text transform="translate(1281.4 1306.6)" fill="#757575">
            <tspan font-family="Roboto" font-size="10" font-weight="400" fill="#757575" x="0" y="9">Default node pool</tspan>
          </text>
        </g>
        <g id="Graphic_58">
          <title>zone internal - yellow</title>
          <rect x="1292.9" y="1335.7" width="376.1211" height="120.29998" fill="#fef7e0"/>
          <rect x="1292.9" y="1335.7" width="376.1211" height="120.29998" stroke="white" stroke-linecap="round" stroke-linejoin="round" stroke-width="2"/>
          <text transform="translate(1302.9 1350.7)" fill="#757575">
            <tspan font-family="Roboto" font-size="10" font-weight="400" fill="#757575" x="0" y="9">Workload pod</tspan>
          </text>
        </g>
        <g id="Graphic_56">
          <title>zone internal - green</title>
          <rect x="1825.5" y="1291.6" width="179.8" height="184.4" fill="#e1f3ec"/>
          <rect x="1825.5" y="1291.6" width="179.8" height="184.4" stroke="white" stroke-linecap="round" stroke-linejoin="round" stroke-width="2"/>
          <text transform="translate(1835.5 1306.6)" fill="#757575">
            <tspan font-family="Roboto" font-size="10" font-weight="400" fill="#757575" x="0" y="9">Gateway node pool</tspan>
          </text>
        </g>
        <g id="Graphic_55">
          <title>zone internal - yellow</title>
          <rect x="1846.25" y="1335.7" width="139.05" height="120.29998" fill="#fff8e1"/>
          <rect x="1846.25" y="1335.7" width="139.05" height="120.29998" stroke="white" stroke-linecap="round" stroke-linejoin="round" stroke-width="2"/>
          <text transform="translate(1856.25 1350.7)" fill="#757575">
            <tspan font-family="Roboto" font-size="10" font-weight="400" fill="#757575" x="0" y="9">Egress gateway</tspan>
          </text>
        </g>
        <g id="Graphic_54">
          <rect x="2129.521" y="1380" width="99.8" height="56" fill="#feffff"/>
          <rect x="2129.521" y="1380" width="99.8" height="56" stroke="#dfdfdf" stroke-linecap="round" stroke-linejoin="round" stroke-width="2" clip-path="url(#inner_stroke_clip_path)"/>
          <text transform="translate(2143.3215 1400.5)" fill="#212121">
            <tspan font-family="Roboto" font-size="12" font-weight="400" fill="#212121" x="0" y="11">example.com</tspan>
          </text>
        </g>
        <g id="Graphic_18">
          <text transform="translate(1427.7806 1380.2)" fill="#757575">
            <tspan font-family="Roboto" font-size="10" font-weight="400" fill="#757575" x="0" y="9">curl http://example.com</tspan>
            <tspan font-family="Roboto" font-size="10" font-weight="400" fill="#757575" x="37.2583" y="21">port 80</tspan>
          </text>
        </g>
        <g id="Group_89">
          <g id="Graphic_15">
            <text transform="translate(1701.0325 1380.2)" fill="#757575">
              <tspan font-family="Roboto" font-size="10" font-weight="400" fill="#757575" x="1.2402344" y="9">plain HTTP in Istio mTLS </tspan>
              <tspan font-family="Roboto" font-size="10" font-weight="400" fill="#757575" x="40.25635" y="21">port 80</tspan>
            </text>
          </g>
          <g id="Graphic_14">
            <path d="M 1730.9828 1396.7333 L 1731.459 1396.7333 L 1731.459 1395.781 C 1731.459 1394.4667 1732.5256 1393.4 1733.84 1393.4 C 1735.1542 1393.4 1736.2208 1394.4667 1736.2208 1395.781 L 1736.2208 1396.7333 L 1736.697 1396.7333 C 1737.2208 1396.7333 1737.6494 1397.1619 1737.6494 1397.6857 L 1737.6494 1402.4476 C 1737.6494 1402.9714 1737.2208 1403.4 1736.697 1403.4 L 1730.9828 1403.4 C 1730.459 1403.4 1730.0304 1402.9714 1730.0304 1402.4476 L 1730.0304 1397.6857 C 1730.0304 1397.1619 1730.459 1396.7333 1730.9828 1396.7333 Z M 1733.84 1401.019 C 1734.3637 1401.019 1734.7923 1400.5905 1734.7923 1400.0667 C 1734.7923 1399.5429 1734.3637 1399.1143 1733.84 1399.1143 C 1733.316 1399.1143 1732.8875 1399.5429 1732.8875 1400.0667 C 1732.8875 1400.5905 1733.316 1401.019 1733.84 1401.019 Z M 1732.3637 1396.7333 L 1735.316 1396.7333 L 1735.316 1395.781 C 1735.316 1394.9667 1734.6542 1394.3048 1733.84 1394.3048 C 1733.0256 1394.3048 1732.3637 1394.9667 1732.3637 1395.781 Z" fill="#616061"/>
          </g>
        </g>
        <g id="Group_10">
          <g id="Graphic_12">
            <text transform="translate(2058.5963 1380.2)" fill="#757575">
              <tspan font-family="Roboto" font-size="10" font-weight="400" fill="#757575" x="0" y="9">TLS (HTTPS)</tspan>
              <tspan font-family="Roboto" font-size="10" font-weight="400" fill="#757575" x="10.180664" y="21">port 443</tspan>
            </text>
          </g>
          <g id="Graphic_11">
            <path d="M 2058.7487 1396.7333 L 2059.225 1396.7333 L 2059.225 1395.781 C 2059.225 1394.4667 2060.2915 1393.4 2061.6058 1393.4 C 2062.92 1393.4 2063.9868 1394.4667 2063.9868 1395.781 L 2063.9868 1396.7333 L 2064.463 1396.7333 C 2064.9868 1396.7333 2065.4154 1397.1619 2065.4154 1397.6857 L 2065.4154 1402.4476 C 2065.4154 1402.9714 2064.9868 1403.4 2064.463 1403.4 L 2058.7487 1403.4 C 2058.225 1403.4 2057.7963 1402.9714 2057.7963 1402.4476 L 2057.7963 1397.6857 C 2057.7963 1397.1619 2058.225 1396.7333 2058.7487 1396.7333 Z M 2061.6058 1401.019 C 2062.1296 1401.019 2062.5582 1400.5905 2062.5582 1400.0667 C 2062.5582 1399.5429 2062.1296 1399.1143 2061.6058 1399.1143 C 2061.082 1399.1143 2060.6535 1399.5429 2060.6535 1400.0667 C 2060.6535 1400.5905 2061.082 1401.019 2061.6058 1401.019 Z M 2060.1296 1396.7333 L 2063.082 1396.7333 L 2063.082 1395.781 C 2063.082 1394.9667 2062.42 1394.3048 2061.6058 1394.3048 C 2060.7915 1394.3048 2060.1296 1394.9667 2060.1296 1395.781 Z" fill="#616061"/>
          </g>
        </g>
        <g id="Graphic_116">
          <path d="M 1412.8 1408.5 L 1539.3211 1408.5 C 1539.5972 1408.5 1539.8211 1408.2761 1539.8211 1408 C 1539.8211 1407.7239 1539.5972 1407.5 1539.3211 1407.5 L 1412.8 1407.5 C 1412.5239 1407.5 1412.3 1407.7239 1412.3 1408 C 1412.3 1408.2761 1412.5239 1408.5 1412.8 1408.5 Z M 1547.3211 1407.5 L 1539.3211 1407.5 L 1539.3211 1408.5 L 1547.3211 1408.5 Z M 1542.9675 1404.3536 L 1546.9675 1408.3536 L 1546.9675 1407.6464 L 1542.9675 1411.6464 L 1543.6746 1412.3536 L 1547.6746 1408.3536 L 1548.0282 1408 L 1547.6746 1407.6464 L 1543.6746 1403.6464 Z" fill="#616161"/>
        </g>
        <g id="Graphic_117">
          <path d="M 1649.0211 1408.5 L 1855.6 1408.5 C 1855.8761 1408.5 1856.1 1408.2761 1856.1 1408 C 1856.1 1407.7239 1855.8761 1407.5 1855.6 1407.5 L 1649.0211 1407.5 C 1648.745 1407.5 1648.5211 1407.7239 1648.5211 1408 C 1648.5211 1408.2761 1648.745 1408.5 1649.0211 1408.5 Z M 1863.6 1407.5 L 1855.6 1407.5 L 1855.6 1408.5 L 1863.6 1408.5 Z M 1859.2464 1404.3536 L 1863.2464 1408.3536 L 1863.2464 1407.6464 L 1859.2464 1411.6464 L 1859.9536 1412.3536 L 1863.9536 1408.3536 L 1864.307 1408 L 1863.9536 1407.6464 L 1859.9536 1403.6464 Z" fill="#616161"/>
        </g>
        <g id="Graphic_118">
          <path d="M 1965.3 1408.5 L 2119.621 1408.5 C 2119.8972 1408.5 2120.121 1408.2761 2120.121 1408 C 2120.121 1407.7239 2119.8972 1407.5 2119.621 1407.5 L 1965.3 1407.5 C 1965.0239 1407.5 1964.8 1407.7239 1964.8 1408 C 1964.8 1408.2761 1965.0239 1408.5 1965.3 1408.5 Z M 2127.621 1407.5 L 2119.621 1407.5 L 2119.621 1408.5 L 2127.621 1408.5 Z M 2123.2675 1404.3536 L 2127.2675 1408.3536 L 2127.2675 1407.6464 L 2123.2675 1411.6464 L 2123.9747 1412.3536 L 2127.9747 1408.3536 L 2128.3282 1408 L 2127.9747 1407.6464 L 2123.9747 1403.6464 Z" fill="#616161"/>
        </g>
        <g id="Group_36">
          <g id="Graphic_50">
            <rect x="1549.2211" y="1380" width="99.8" height="56" fill="white"/>
            <rect x="1549.2211" y="1380" width="99.8" height="56" stroke="#dfdfdf" stroke-linecap="round" stroke-linejoin="round" stroke-width="2" clip-path="url(#inner_stroke_clip_path_2)"/>
            <text transform="translate(1598.2211 1400.5)" fill="#212121">
              <tspan font-family="Roboto" font-size="12" font-weight="400" fill="#212121" x="0" y="11">envoy</tspan>
            </text>
          </g>
          <g id="Group_37">
            <title>Group_3_1_</title>
            <g id="Group_48">
              <title>Graphic_9_1_</title>
              <g id="Graphic_49">
                <path d="M 1571.4806 1407.6322 L 1571.5515 1409.1675 L 1573.0869 1410.136 L 1573.0869 1408.6006 Z" fill="#b11cab"/>
              </g>
            </g>
            <g id="Group_46">
              <title>Graphic_8_1_</title>
              <g id="Graphic_47">
                <path d="M 1575.378 1413.8917 L 1575.3072 1412.4272 L 1573.9136 1411.5886 C 1573.9136 1411.5886 1573.8427 1411.5886 1573.8427 1411.5178 L 1573.9136 1412.9823 Z" fill="#b11cab"/>
              </g>
            </g>
            <g id="Group_44">
              <title>Graphic_7_1_</title>
              <g id="Graphic_45">
                <path d="M 1570.3704 1415.8995 L 1566.7565 1413.6791 L 1566.6856 1409.9234 L 1568.4926 1409.1557 L 1568.4217 1407.6203 L 1565.5636 1408.884 C 1565.351 1408.884 1565.2211 1409.0966 1565.2211 1409.3683 L 1565.3628 1413.8917 C 1565.3628 1414.1043 1565.5045 1414.3759 1565.7053 1414.5176 L 1570.087 1417.234 C 1570.2996 1417.3758 1570.5004 1417.3758 1570.713 1417.3049 L 1570.7838 1417.3049 L 1573.5002 1416.1239 L 1572.0357 1415.2145 Z" fill="#b11cab"/>
              </g>
            </g>
            <g id="Group_42">
              <title>Graphic_6_1_</title>
              <g id="Graphic_43">
                <path d="M 1582.1218 1407.5613 C 1582.1218 1407.2778 1581.9801 1407.0062 1581.7085 1406.8645 L 1576.4174 1403.593 L 1576.2757 1403.6638 L 1576.3465 1405.2583 L 1580.5156 1407.833 L 1580.5865 1412.0729 L 1582.1809 1413.0413 L 1582.2518 1412.9705 Z" fill="#cf63ce"/>
              </g>
            </g>
            <g id="Group_40">
              <title>Graphic_5_1_</title>
              <g id="Graphic_41">
                <path d="M 1575.7914 1415.0019 L 1570.8547 1411.943 L 1570.7838 1406.8645 L 1573.0042 1405.896 L 1572.9333 1404.1599 L 1569.461 1405.6952 C 1569.1776 1405.837 1569.0477 1406.0377 1569.0477 1406.3212 L 1569.1894 1412.2973 C 1569.1894 1412.5807 1569.3311 1412.8524 1569.6028 1412.9941 L 1575.378 1416.5372 C 1575.5907 1416.679 1575.9332 1416.7498 1576.1458 1416.679 L 1576.2048 1416.679 L 1579.618 1415.2145 L 1577.9528 1414.1751 Z" fill="#cf63ce"/>
              </g>
            </g>
            <g id="Group_38">
              <title>Graphic_4_1_</title>
              <g id="Graphic_39">
                <path d="M 1589.6333 1403.3213 L 1582.2636 1398.727 C 1581.9801 1398.5854 1581.6376 1398.5145 1581.3542 1398.5854 L 1581.2833 1398.5854 L 1574.0553 1401.786 C 1573.7719 1401.9277 1573.571 1402.1993 1573.571 1402.4828 L 1573.7837 1410.2068 C 1573.7837 1410.4903 1573.9963 1410.8328 1574.2679 1411.0454 L 1581.6376 1415.6396 C 1581.921 1415.7814 1582.2636 1415.8522 1582.547 1415.7814 L 1582.6179 1415.7814 L 1589.8459 1412.6516 C 1590.1293 1412.5099 1590.3301 1412.2382 1590.3301 1411.9548 L 1590.1884 1404.1717 C 1590.1175 1403.8056 1589.9758 1403.5221 1589.6333 1403.3213 Z M 1582.1218 1413.8208 L 1575.7206 1409.8525 L 1575.5789 1403.1796 L 1581.8384 1400.4632 L 1588.2397 1404.4315 L 1588.3814 1411.1044 Z" fill="#df3faf"/>
              </g>
            </g>
          </g>
        </g>
        <g id="Graphic_35">
          <rect x="1313" y="1380" width="99.8" height="56" fill="white"/>
          <rect x="1313" y="1380" width="99.8" height="56" stroke="#dfdfdf" stroke-linecap="round" stroke-linejoin="round" stroke-width="2" clip-path="url(#inner_stroke_clip_path_3)"/>
          <text transform="translate(1339.8785 1400.5)" fill="#212121">
            <tspan font-family="Roboto" font-size="12" font-weight="400" fill="#212121" x="0" y="11">Test app</tspan>
          </text>
        </g>
        <g id="Group_119">
          <g id="Graphic_120">
            <path d="M 1757.019 1535.0726 C 1756.719 1535.0726 1756.519 1534.8726 1756.519 1534.5726 C 1756.519 1534.2726 1756.719 1534.0726 1757.019 1534.0726 C 1757.319 1534.0726 1757.519 1534.2726 1757.519 1534.5726 C 1757.519 1534.8726 1757.319 1535.0726 1757.019 1535.0726 Z M 1757.019 1531.0726 C 1756.719 1531.0726 1756.519 1530.8726 1756.519 1530.5726 L 1756.519 1526.5726 C 1756.519 1526.2726 1756.719 1526.0726 1757.019 1526.0726 C 1757.319 1526.0726 1757.519 1526.2726 1757.519 1526.5726 L 1757.519 1530.5726 C 1757.519 1530.8726 1757.319 1531.0726 1757.019 1531.0726 Z M 1757.019 1523.0726 C 1756.719 1523.0726 1756.519 1522.8726 1756.519 1522.5726 L 1756.519 1518.5726 C 1756.519 1518.2726 1756.719 1518.0726 1757.019 1518.0726 C 1757.319 1518.0726 1757.519 1518.2726 1757.519 1518.5726 L 1757.519 1522.5726 C 1757.519 1522.8726 1757.319 1523.0726 1757.019 1523.0726 Z M 1757.019 1515.0726 C 1756.719 1515.0726 1756.519 1514.8726 1756.519 1514.5726 L 1756.519 1510.5726 C 1756.519 1510.2726 1756.719 1510.0726 1757.019 1510.0726 C 1757.319 1510.0726 1757.519 1510.2726 1757.519 1510.5726 L 1757.519 1514.5726 C 1757.519 1514.8726 1757.319 1515.0726 1757.019 1515.0726 Z M 1757.019 1507.0726 C 1756.719 1507.0726 1756.519 1506.8726 1756.519 1506.5726 L 1756.519 1502.5726 C 1756.519 1502.2726 1756.719 1502.0726 1757.019 1502.0726 C 1757.319 1502.0726 1757.519 1502.2726 1757.519 1502.5726 L 1757.519 1506.5726 C 1757.519 1506.8726 1757.319 1507.0726 1757.019 1507.0726 Z M 1757.019 1499.0726 C 1756.719 1499.0726 1756.519 1498.8726 1756.519 1498.5726 L 1756.519 1494.5726 C 1756.519 1494.2726 1756.719 1494.0726 1757.019 1494.0726 C 1757.319 1494.0726 1757.519 1494.2726 1757.519 1494.5726 L 1757.519 1498.5726 C 1757.519 1498.8726 1757.319 1499.0726 1757.019 1499.0726 Z M 1757.019 1491.0726 C 1756.719 1491.0726 1756.519 1490.8726 1756.519 1490.5726 L 1756.519 1486.5726 C 1756.519 1486.2726 1756.719 1486.0726 1757.019 1486.0726 C 1757.319 1486.0726 1757.519 1486.2726 1757.519 1486.5726 L 1757.519 1490.5726 C 1757.519 1490.8726 1757.319 1491.0726 1757.019 1491.0726 Z M 1757.019 1483.0726 C 1756.719 1483.0726 1756.519 1482.8726 1756.519 1482.5726 L 1756.519 1478.5726 C 1756.519 1478.2726 1756.719 1478.0726 1757.019 1478.0726 C 1757.319 1478.0726 1757.519 1478.2726 1757.519 1478.5726 L 1757.519 1482.5726 C 1757.519 1482.8726 1757.319 1483.0726 1757.019 1483.0726 Z M 1757.019 1475.0726 C 1756.719 1475.0726 1756.519 1474.8726 1756.519 1474.5726 L 1756.519 1470.5726 C 1756.519 1470.2726 1756.719 1470.0726 1757.019 1470.0726 C 1757.319 1470.0726 1757.519 1470.2726 1757.519 1470.5726 L 1757.519 1474.5726 C 1757.519 1474.8726 1757.319 1475.0726 1757.019 1475.0726 Z M 1757.019 1467.0726 C 1756.719 1467.0726 1756.519 1466.8726 1756.519 1466.5726 L 1756.519 1462.5726 C 1756.519 1462.2726 1756.719 1462.0726 1757.019 1462.0726 C 1757.319 1462.0726 1757.519 1462.2726 1757.519 1462.5726 L 1757.519 1466.5726 C 1757.519 1466.8726 1757.319 1467.0726 1757.019 1467.0726 Z M 1757.019 1459.0726 C 1756.719 1459.0726 1756.519 1458.8726 1756.519 1458.5726 L 1756.519 1454.5726 C 1756.519 1454.2726 1756.719 1454.0726 1757.019 1454.0726 C 1757.319 1454.0726 1757.519 1454.2726 1757.519 1454.5726 L 1757.519 1458.5726 C 1757.519 1458.8726 1757.319 1459.0726 1757.019 1459.0726 Z M 1757.019 1451.0726 C 1756.719 1451.0726 1756.519 1450.8726 1756.519 1450.5726 L 1756.519 1446.5726 C 1756.519 1446.2726 1756.719 1446.0726 1757.019 1446.0726 C 1757.319 1446.0726 1757.519 1446.2726 1757.519 1446.5726 L 1757.519 1450.5726 C 1757.519 1450.8726 1757.319 1451.0726 1757.019 1451.0726 Z M 1757.019 1443.0726 C 1756.719 1443.0726 1756.519 1442.8726 1756.519 1442.5726 L 1756.519 1438.5726 C 1756.519 1438.2726 1756.719 1438.0726 1757.019 1438.0726 C 1757.319 1438.0726 1757.519 1438.2726 1757.519 1438.5726 L 1757.519 1442.5726 C 1757.519 1442.8726 1757.319 1443.0726 1757.019 1443.0726 Z M 1757.019 1435.0726 C 1756.719 1435.0726 1756.519 1434.8726 1756.519 1434.5726 L 1756.519 1430.5726 C 1756.519 1430.2726 1756.719 1430.0726 1757.019 1430.0726 C 1757.319 1430.0726 1757.519 1430.2726 1757.519 1430.5726 L 1757.519 1434.5726 C 1757.519 1434.8726 1757.319 1435.0726 1757.019 1435.0726 Z M 1757.019 1427.0726 C 1756.719 1427.0726 1756.519 1426.8726 1756.519 1426.5726 L 1756.519 1422.5726 C 1756.519 1422.2726 1756.719 1422.0726 1757.019 1422.0726 C 1757.319 1422.0726 1757.519 1422.2726 1757.519 1422.5726 L 1757.519 1426.5726 C 1757.519 1426.8726 1757.319 1427.0726 1757.019 1427.0726 Z M 1865.019 1419.0726 L 1861.019 1419.0726 C 1860.719 1419.0726 1860.519 1418.8726 1860.519 1418.5726 C 1860.519 1418.2726 1860.719 1418.0726 1861.019 1418.0726 L 1865.019 1418.0726 C 1865.319 1418.0726 1865.519 1418.2726 1865.519 1418.5726 C 1865.519 1418.8726 1865.319 1419.0726 1865.019 1419.0726 Z M 1857.019 1419.0726 L 1853.019 1419.0726 C 1852.719 1419.0726 1852.519 1418.8726 1852.519 1418.5726 C 1852.519 1418.2726 1852.719 1418.0726 1853.019 1418.0726 L 1857.019 1418.0726 C 1857.319 1418.0726 1857.519 1418.2726 1857.519 1418.5726 C 1857.519 1418.8726 1857.319 1419.0726 1857.019 1419.0726 Z M 1849.019 1419.0726 L 1845.019 1419.0726 C 1844.719 1419.0726 1844.519 1418.8726 1844.519 1418.5726 C 1844.519 1418.2726 1844.719 1418.0726 1845.019 1418.0726 L 1849.019 1418.0726 C 1849.319 1418.0726 1849.519 1418.2726 1849.519 1418.5726 C 1849.519 1418.8726 1849.319 1419.0726 1849.019 1419.0726 Z M 1841.019 1419.0726 L 1837.019 1419.0726 C 1836.719 1419.0726 1836.519 1418.8726 1836.519 1418.5726 C 1836.519 1418.2726 1836.719 1418.0726 1837.019 1418.0726 L 1841.019 1418.0726 C 1841.319 1418.0726 1841.519 1418.2726 1841.519 1418.5726 C 1841.519 1418.8726 1841.319 1419.0726 1841.019 1419.0726 Z M 1833.019 1419.0726 L 1829.019 1419.0726 C 1828.719 1419.0726 1828.519 1418.8726 1828.519 1418.5726 C 1828.519 1418.2726 1828.719 1418.0726 1829.019 1418.0726 L 1833.019 1418.0726 C 1833.319 1418.0726 1833.519 1418.2726 1833.519 1418.5726 C 1833.519 1418.8726 1833.319 1419.0726 1833.019 1419.0726 Z M 1825.019 1419.0726 L 1821.019 1419.0726 C 1820.719 1419.0726 1820.519 1418.8726 1820.519 1418.5726 C 1820.519 1418.2726 1820.719 1418.0726 1821.019 1418.0726 L 1825.019 1418.0726 C 1825.319 1418.0726 1825.519 1418.2726 1825.519 1418.5726 C 1825.519 1418.8726 1825.319 1419.0726 1825.019 1419.0726 Z M 1817.019 1419.0726 L 1813.019 1419.0726 C 1812.719 1419.0726 1812.519 1418.8726 1812.519 1418.5726 C 1812.519 1418.2726 1812.719 1418.0726 1813.019 1418.0726 L 1817.019 1418.0726 C 1817.319 1418.0726 1817.519 1418.2726 1817.519 1418.5726 C 1817.519 1418.8726 1817.319 1419.0726 1817.019 1419.0726 Z M 1809.019 1419.0726 L 1805.019 1419.0726 C 1804.719 1419.0726 1804.519 1418.8726 1804.519 1418.5726 C 1804.519 1418.2726 1804.719 1418.0726 1805.019 1418.0726 L 1809.019 1418.0726 C 1809.319 1418.0726 1809.519 1418.2726 1809.519 1418.5726 C 1809.519 1418.8726 1809.319 1419.0726 1809.019 1419.0726 Z M 1801.019 1419.0726 L 1797.019 1419.0726 C 1796.719 1419.0726 1796.519 1418.8726 1796.519 1418.5726 C 1796.519 1418.2726 1796.719 1418.0726 1797.019 1418.0726 L 1801.019 1418.0726 C 1801.319 1418.0726 1801.519 1418.2726 1801.519 1418.5726 C 1801.519 1418.8726 1801.319 1419.0726 1801.019 1419.0726 Z M 1793.019 1419.0726 L 1789.019 1419.0726 C 1788.719 1419.0726 1788.519 1418.8726 1788.519 1418.5726 C 1788.519 1418.2726 1788.719 1418.0726 1789.019 1418.0726 L 1793.019 1418.0726 C 1793.319 1418.0726 1793.519 1418.2726 1793.519 1418.5726 C 1793.519 1418.8726 1793.319 1419.0726 1793.019 1419.0726 Z M 1785.019 1419.0726 L 1781.019 1419.0726 C 1780.719 1419.0726 1780.519 1418.8726 1780.519 1418.5726 C 1780.519 1418.2726 1780.719 1418.0726 1781.019 1418.0726 L 1785.019 1418.0726 C 1785.319 1418.0726 1785.519 1418.2726 1785.519 1418.5726 C 1785.519 1418.8726 1785.319 1419.0726 1785.019 1419.0726 Z M 1777.019 1419.0726 L 1773.019 1419.0726 C 1772.719 1419.0726 1772.519 1418.8726 1772.519 1418.5726 C 1772.519 1418.2726 1772.719 1418.0726 1773.019 1418.0726 L 1777.019 1418.0726 C 1777.319 1418.0726 1777.519 1418.2726 1777.519 1418.5726 C 1777.519 1418.8726 1777.319 1419.0726 1777.019 1419.0726 Z M 1769.019 1419.0726 L 1765.019 1419.0726 C 1764.719 1419.0726 1764.519 1418.8726 1764.519 1418.5726 C 1764.519 1418.2726 1764.719 1418.0726 1765.019 1418.0726 L 1769.019 1418.0726 C 1769.319 1418.0726 1769.519 1418.2726 1769.519 1418.5726 C 1769.519 1418.8726 1769.319 1419.0726 1769.019 1419.0726 Z M 1761.019 1419.0726 L 1757.019 1419.0726 C 1756.719 1419.0726 1756.519 1418.8726 1756.519 1418.5726 C 1756.519 1418.2726 1756.719 1418.0726 1757.019 1418.0726 L 1761.019 1418.0726 C 1761.319 1418.0726 1761.519 1418.2726 1761.519 1418.5726 C 1761.519 1418.8726 1761.319 1419.0726 1761.019 1419.0726 Z" fill="#616161"/>
          </g>
        </g>
        <g id="Group_20">
          <g id="Graphic_34">
            <rect x="1865.5" y="1380" width="99.8" height="56" fill="white"/>
            <rect x="1865.5" y="1380" width="99.8" height="56" stroke="#dfdfdf" stroke-linecap="round" stroke-linejoin="round" stroke-width="2" clip-path="url(#inner_stroke_clip_path_4)"/>
            <text transform="translate(1914.5 1400.5)" fill="#212121">
              <tspan font-family="Roboto" font-size="12" font-weight="400" fill="#212121" x="0" y="11">envoy</tspan>
            </text>
          </g>
          <g id="Group_21">
            <title>Group_3_1_</title>
            <g id="Group_32">
              <title>Graphic_9_1_</title>
              <g id="Graphic_33">
                <path d="M 1887.7595 1407.6322 L 1887.8304 1409.1675 L 1889.3658 1410.136 L 1889.3658 1408.6006 Z" fill="#b11cab"/>
              </g>
            </g>
            <g id="Group_30">
              <title>Graphic_8_1_</title>
              <g id="Graphic_31">
                <path d="M 1891.657 1413.8917 L 1891.5861 1412.4272 L 1890.1925 1411.5886 C 1890.1925 1411.5886 1890.1216 1411.5886 1890.1216 1411.5178 L 1890.1925 1412.9823 Z" fill="#b11cab"/>
              </g>
            </g>
            <g id="Group_28">
              <title>Graphic_7_1_</title>
              <g id="Graphic_29">
                <path d="M 1886.6494 1415.8995 L 1883.0354 1413.6791 L 1882.9645 1409.9234 L 1884.7715 1409.1557 L 1884.7006 1407.6203 L 1881.8425 1408.884 C 1881.63 1408.884 1881.5 1409.0966 1881.5 1409.3683 L 1881.6417 1413.8917 C 1881.6417 1414.1043 1881.7835 1414.3759 1881.9842 1414.5176 L 1886.366 1417.234 C 1886.5785 1417.3758 1886.7793 1417.3758 1886.9919 1417.3049 L 1887.0627 1417.3049 L 1889.7791 1416.1239 L 1888.3146 1415.2145 Z" fill="#b11cab"/>
              </g>
            </g>
            <g id="Group_26">
              <title>Graphic_6_1_</title>
              <g id="Graphic_27">
                <path d="M 1898.4007 1407.5613 C 1898.4007 1407.2778 1898.259 1407.0062 1897.9874 1406.8645 L 1892.6963 1403.593 L 1892.5546 1403.6638 L 1892.6254 1405.2583 L 1896.7945 1407.833 L 1896.8654 1412.0729 L 1898.4598 1413.0413 L 1898.5307 1412.9705 Z" fill="#cf63ce"/>
              </g>
            </g>
            <g id="Group_24">
              <title>Graphic_5_1_</title>
              <g id="Graphic_25">
                <path d="M 1892.0703 1415.0019 L 1887.1336 1411.943 L 1887.0627 1406.8645 L 1889.283 1405.896 L 1889.2122 1404.1599 L 1885.74 1405.6952 C 1885.4565 1405.837 1885.3266 1406.0377 1885.3266 1406.3212 L 1885.4683 1412.2973 C 1885.4683 1412.5807 1885.61 1412.8524 1885.8817 1412.9941 L 1891.657 1416.5372 C 1891.8696 1416.679 1892.212 1416.7498 1892.4247 1416.679 L 1892.4837 1416.679 L 1895.897 1415.2145 L 1894.2317 1414.1751 Z" fill="#cf63ce"/>
              </g>
            </g>
            <g id="Group_22">
              <title>Graphic_4_1_</title>
              <g id="Graphic_23">
                <path d="M 1905.9122 1403.3213 L 1898.5425 1398.727 C 1898.259 1398.5854 1897.9165 1398.5145 1897.633 1398.5854 L 1897.5622 1398.5854 L 1890.3342 1401.786 C 1890.0508 1401.9277 1889.85 1402.1993 1889.85 1402.4828 L 1890.0626 1410.2068 C 1890.0626 1410.4903 1890.2752 1410.8328 1890.5468 1411.0454 L 1897.9165 1415.6396 C 1898.2 1415.7814 1898.5425 1415.8522 1898.826 1415.7814 L 1898.8968 1415.7814 L 1906.1248 1412.6516 C 1906.4082 1412.5099 1906.609 1412.2382 1906.609 1411.9548 L 1906.4673 1404.1717 C 1906.3964 1403.8056 1906.2547 1403.5221 1905.9122 1403.3213 Z M 1898.4007 1413.8208 L 1891.9995 1409.8525 L 1891.8578 1403.1796 L 1898.1173 1400.4632 L 1904.5186 1404.4315 L 1904.6603 1411.1044 Z" fill="#df3faf"/>
              </g>
            </g>
          </g>
        </g>
        <g id="Group_127">
          <g id="Graphic_51">
            <rect x="1633.5158" y="1535" width="247.4895" height="119.80002" fill="white"/>
            <rect x="1633.5158" y="1535" width="247.4895" height="119.80002" stroke="#dfdfdf" stroke-linecap="round" stroke-linejoin="round" stroke-width="2" clip-path="url(#inner_stroke_clip_path_5)"/>
          </g>
          <g id="Graphic_122">
            <text transform="translate(1650.344 1545.8)" fill="#212121">
              <tspan font-family="Roboto" font-size="12" font-weight="400" fill="#212121" x="0" y="11">Authorization policy supports: </tspan>
            </text>
          </g>
          <g id="Graphic_123">
            <text transform="translate(1650.344 1574)" fill="#212121">
              <tspan font-family="Roboto" font-size="12" font-weight="400" fill="#212121" x="0" y="11">mTLS attributes:</tspan>
            </text>
          </g>
          <g id="Graphic_124">
            <text transform="translate(1652.4218 1588)" fill="#212121">
              <tspan font-family="Roboto" font-size="12" font-weight="400" fill="#212121" x="0" y="11">• source identity (principal)</tspan>
            </text>
          </g>
          <g id="Graphic_125">
            <text transform="translate(1652.4218 1601.8904)" fill="#212121">
              <tspan font-family="Roboto" font-size="12" font-weight="400" fill="#212121" x="0" y="11">• source namespace</tspan>
            </text>
          </g>
          <g id="Graphic_126">
            <text transform="translate(1649.428 1630)" fill="#212121">
              <tspan font-family="Roboto" font-size="12" font-weight="400" fill="#212121" x="0" y="11">HTTP attributes: host, path, headers, etc.</tspan>
            </text>
          </g>
        </g>
      </g>
    </g>
  </g>
</svg>
